<?xml version="1.0" encoding="UTF-8" standalone="no"?>
<!-- Created with Inkscape (http://www.inkscape.org/) -->

<svg
   version="1.1"
   id="svg256"
   width="10in"
   height="10in"
   viewBox="0 0 960.00002 960.00002"
   sodipodi:docname="HCF Reading Is Magical.svg"
   inkscape:version="1.2.1 (9c6d41e, 2022-07-14)"
   xmlns:inkscape="http://www.inkscape.org/namespaces/inkscape"
   xmlns:sodipodi="http://sodipodi.sourceforge.net/DTD/sodipodi-0.dtd"
   xmlns="http://www.w3.org/2000/svg"
   xmlns:svg="http://www.w3.org/2000/svg">
  <defs
     id="defs260" />
  <sodipodi:namedview
     id="namedview258"
     pagecolor="#ffffff"
     bordercolor="#000000"
     borderopacity="0.25"
     inkscape:showpageshadow="2"
     inkscape:pageopacity="0.0"
     inkscape:pagecheckerboard="0"
     inkscape:deskcolor="#d1d1d1"
     showgrid="false"
     inkscape:zoom="0.44785584"
     inkscape:cx="1019.3012"
     inkscape:cy="1092.9856"
     inkscape:window-width="2044"
     inkscape:window-height="1205"
     inkscape:window-x="0"
     inkscape:window-y="25"
     inkscape:window-maximized="0"
     inkscape:current-layer="g262"
     inkscape:document-units="in" />
  <g
     inkscape:groupmode="layer"
     inkscape:label="Image"
     id="g262">
    <path
       style="fill:#251a1e;stroke-width:0.476106"
       d="m 385.37173,878.61775 c -2.47907,-1.30844 -4.92593,-4.32733 -5.77519,-7.12531 -0.36056,-1.18797 -0.59224,-4.32903 -0.56916,-7.71671 0.0348,-5.0928 0.20082,-6.18874 1.52965,-10.09152 2.82614,-8.30038 7.25399,-15.86254 13.12793,-22.42066 2.89027,-3.22689 2.91002,-3.30255 2.2035,-8.43287 -0.77422,-5.62181 -0.99653,-6.57187 -1.43498,-6.13238 -0.22993,0.23053 -1.19702,2.66872 -2.14909,5.41822 -5.5682,16.08079 -13.64295,22.78659 -20.25031,16.81723 l -1.87846,-1.69708 -1.05438,2.55717 c -5.15917,12.51266 -9.24578,17.54576 -13.75521,16.94091 -3.79322,-0.50881 -6.10605,-3.43966 -7.35158,-9.31609 -0.76463,-3.6075 -0.8689,-15.18976 -0.19344,-21.4933 0.87132,-8.13211 1.09713,-15.4707 0.50976,-16.56822 -1.6778,-3.13496 -5.15422,0.88356 -7.33121,8.47444 -1.67527,5.84124 -2.28417,10.6659 -2.17656,17.24514 0.0961,5.87229 0.0138,6.63539 -0.81134,7.54742 -1.44212,1.59347 -3.2984,2.34543 -5.79,2.34543 -4.10179,0 -4.88737,-1.289 -6.6012,-10.83139 -0.43502,-2.42219 -0.9634,-4.40397 -1.17418,-4.40397 -0.21077,0 -1.41545,1.76421 -2.67709,3.92044 -2.95294,5.04681 -7.25218,9.48197 -10.28435,10.60948 -1.93537,0.71968 -2.56511,0.76053 -4.19549,0.27204 -2.73266,-0.81875 -5.50506,-3.50299 -6.49407,-6.28758 -0.45416,-1.27877 -1.00063,-2.32502 -1.21441,-2.32502 -0.21377,0 -0.71782,0.80343 -1.12013,1.7854 -3.5068,8.55899 -7.56408,14.49122 -11.16905,16.33031 -4.47772,2.28435 -9.48059,-0.0879 -12.40568,-5.88242 -1.63328,-3.23551 -3.73543,-10.94223 -3.73543,-13.69455 0,-0.99839 -0.16678,-1.91837 -0.37069,-2.0444 -0.20387,-0.12597 -1.4358,1.19536 -2.73761,2.93633 -3.07335,4.11018 -5.97169,5.94252 -9.39975,5.94252 -2.89181,0 -4.95582,-0.91845 -6.68675,-2.97557 -0.66893,-0.79495 -1.42018,-1.4454 -1.66947,-1.4454 -0.24929,0 -1.66065,2.20531 -3.13629,4.90069 -4.48439,8.19087 -8.34208,11.76299 -12.7034,11.76299 -5.23159,0 -7.75285,-4.37598 -8.714,-15.12419 l -0.5262,-5.8841 -2.38053,2.98704 c -3.17362,3.98223 -6.09986,5.77854 -9.41336,5.77854 -3.81927,0 -6.358,-1.66209 -8.20739,-5.37319 -0.45668,-0.9165 -0.88031,-1.72569 -0.9413,-1.7982 -0.061,-0.0725 -1.69423,1.44499 -3.62931,3.37221 -4.58251,4.5639 -8.51276,6.57082 -13.49416,6.89053 -2.95423,0.18958 -3.86797,0.0573 -5.68779,-0.82371 -3.94449,-1.90947 -6.46146,-6.121 -7.76804,-12.99781 -0.41035,-2.1599 -0.81023,-4.17917 -0.88855,-4.48725 -0.1007,-0.39598 -0.87294,-0.28258 -2.63477,0.38683 -3.13429,1.19098 -7.83203,1.2562 -10.18127,0.1414 -3.91326,-1.85695 -6.46651,-6.8313 -7.16977,-13.96831 -0.21444,-2.17594 -0.52943,-3.35197 -0.86827,-3.2418 -2.11167,0.68664 -5.85658,18.13457 -6.89543,32.1265 -0.25638,3.45314 -0.68421,6.14051 -1.04715,6.57786 -2.0095,2.42128 -6.29725,2.81802 -8.56427,0.79248 -1.31862,-1.17822 -1.53954,-1.78725 -2.15971,-5.95522 -1.4725,-9.89551 -1.60419,-38.69236 -0.19649,-42.95783 0.43544,-1.31939 1.00824,-1.94042 2.27978,-2.4717 2.31268,-0.96631 5.55491,-0.45406 7.13643,1.12741 1.19489,1.19489 1.20003,1.23625 0.90884,7.32355 -0.16392,3.42681 -0.10612,6.23726 0.13132,6.384 0.36692,0.22677 0.72182,-0.74992 2.24464,-6.17752 0.47411,-1.68974 3.46695,-7.41586 4.76667,-9.11984 2.656,-3.48224 8.28662,-4.65622 11.6054,-2.41966 2.45442,1.65404 2.93419,3.94215 2.5695,12.25367 -0.43069,9.81433 0.53552,13.33094 3.66286,13.33094 0.87242,0 1.99522,-0.58008 3.16043,-1.6328 1.61853,-1.46222 1.87114,-2.0125 2.41814,-5.26787 0.72744,-4.32927 1.7833,-7.53151 3.80171,-11.52993 2.71256,-5.37361 5.98026,-8.11084 10.90076,-9.13123 8.1943,-1.69927 13.99088,4.7124 12.51962,13.84804 -1.21922,7.57065 -6.19313,13.25497 -12.89194,14.73328 -1.43183,0.31599 -2.87115,0.77771 -3.19847,1.02605 -0.83281,0.63194 -0.75811,5.80268 0.12688,8.78272 0.91794,3.09101 3.09583,5.09565 5.10042,4.69477 4.54161,-0.90836 11.76052,-9.60561 16.37207,-19.72494 3.38116,-7.41954 8.39707,-13.40047 12.91403,-15.39872 1.48159,-0.65546 3.66639,-1.08329 6.31263,-1.23622 3.80641,-0.21996 4.15692,-0.33274 5.89842,-1.89765 1.71427,-1.54049 2.02116,-1.64376 4.1403,-1.39275 3.05718,0.36207 5.11185,1.48464 5.49235,3.0007 0.17021,0.67821 -0.25523,4.37007 -0.94549,8.2042 -2.45828,13.65522 -3.95396,27.84901 -3.3553,31.8412 0.70487,4.7003 3.28726,2.46119 7.8175,-6.77816 1.79749,-3.66602 4.2491,-9.4507 5.44798,-12.85485 1.19888,-3.40415 2.33739,-6.43751 2.53002,-6.7408 6.12857,-9.6476 10.41485,-12.8674 17.80353,-13.37384 2.06944,-0.14183 3.85336,-0.40478 3.96433,-0.58437 0.11099,-0.17954 1.08058,-5.23687 2.15467,-11.23846 2.36072,-13.1904 2.54545,-13.82392 4.29595,-14.72913 3.61878,-1.87134 10.45827,0.37769 10.45827,3.43905 0,0.62736 -0.73606,4.07565 -1.63571,7.66292 -5.08304,20.26818 -8.40935,42.77482 -7.73471,52.33492 0.54357,7.70209 3.63344,10.4716 6.63038,5.94289 2.97771,-4.49963 7.99157,-18.58292 10.37049,-29.12936 1.67583,-7.42958 2.0182,-7.79875 6.99926,-7.54722 2.9928,0.15116 3.63121,0.34688 4.73673,1.45245 l 1.27777,1.27772 -1.39513,5.85467 c -1.17698,4.93931 -1.39514,6.8383 -1.39514,12.14606 0,5.23521 0.13313,6.42452 0.79291,7.08427 1.90966,1.90969 5.11499,-1.07368 9.16656,-8.53172 3.82783,-7.04627 4.13358,-8.20991 4.23419,-16.1145 0.0877,-6.89396 0.11502,-7.0643 1.32948,-8.27827 2.51011,-2.50918 9.32695,-1.96584 10.20911,0.81375 0.1805,0.56857 0.17759,3.35617 -0.006,6.19461 -0.18396,2.83844 -0.21957,5.16083 -0.0792,5.16083 0.1404,0 1.09104,-1.76753 2.11258,-3.92786 3.36268,-7.1114 7.23251,-10.3591 12.33365,-10.35082 3.92558,0.006 7.0544,1.85758 8.96277,5.30296 l 1.41151,2.5483 -0.0348,8.80795 c -0.0286,7.20257 -0.26724,10.20769 -1.3093,16.48767 -0.70092,4.22386 -1.27434,9.16417 -1.27434,10.97846 0,3.46682 0.7713,5.37128 1.89418,4.67732 1.81735,-1.12319 8.12345,-17.81701 9.80416,-25.95408 1.53549,-7.43401 4.02669,-12.47505 8.25638,-16.70725 3.51569,-3.51775 6.4663,-4.92788 11.1314,-5.3198 1.51683,-0.12746 2.90945,-0.38242 3.0947,-0.56657 0.18523,-0.18421 0.7653,-1.64085 1.28901,-3.237 1.06507,-3.24608 2.36987,-4.5051 5.1337,-4.95359 2.16647,-0.3516 5.84002,0.92703 6.56718,2.28574 0.27585,0.51538 0.80439,5.04952 1.17453,10.07576 0.93735,12.72849 1.21151,15.08998 1.75188,15.08998 0.25919,0 2.22048,-1.3659 4.35843,-3.03532 4.65103,-3.63183 6.91087,-5.05428 8.03326,-5.05672 1.28578,-0.005 2.73761,1.74841 2.73761,3.30199 0,1.19283 -0.97892,2.28925 -6.6341,7.43057 -3.64875,3.31721 -6.79706,6.38333 -6.99624,6.81354 -0.19918,0.43021 -0.39322,5.60277 -0.43119,11.49457 -0.10133,15.71961 -1.82636,25.6078 -5.57491,31.95623 -4.49614,7.61455 -11.81771,10.90362 -17.54392,7.88131 z m 7.16614,-9.93156 c 2.3396,-2.51126 3.99435,-9.86609 4.54669,-20.20848 0.3144,-5.88719 0.13034,-8.26918 -0.63895,-8.26918 -0.49725,0 -3.17583,4.238 -5.09286,8.05779 -4.09413,8.15783 -4.78314,18.91976 -1.33946,20.92154 1.22828,0.71397 1.42923,0.67402 2.52458,-0.50167 z M 220.36529,828.3705 c 2.88129,-4.93031 8.88802,-20.218 8.88802,-22.62086 0,-1.35828 -1.84491,-0.84733 -3.95124,1.09424 -5.50344,5.07284 -11.04621,20.03793 -8.73058,23.57197 1.06638,1.62751 1.91456,1.17026 3.7938,-2.04535 z m 44.34911,1.00662 c 2.21636,-3.2547 8.3406,-20.34221 8.3406,-23.27155 0,-2.39752 -3.34987,-0.49367 -5.90522,3.35616 -3.38883,5.10548 -6.47352,13.5392 -6.47352,17.69908 0,4.14007 1.98588,5.23001 4.03814,2.21631 z m 117.72458,-1.31119 c 2.31263,-3.56046 7.73794,-18.93389 7.73794,-21.9266 0,-1.84547 -1.95726,-1.53234 -3.8424,0.61475 -3.31335,3.77371 -7.10802,14.38723 -7.10802,19.88087 0,3.85636 1.26976,4.42197 3.21248,1.43098 z M 188.29436,814.45632 c 3.35707,-3.45919 5.6219,-9.86409 4.33703,-12.26485 -1.80772,-3.37783 -5.00953,1.51749 -6.87039,10.50445 -0.92126,4.44916 -0.41645,4.79995 2.53336,1.7604 z m 484.64495,64.16143 c -2.47908,-1.30844 -4.92592,-4.32733 -5.7752,-7.12531 -0.36055,-1.18797 -0.59223,-4.32903 -0.56913,-7.71671 0.0348,-5.0928 0.20081,-6.18874 1.52962,-10.09152 2.82617,-8.30038 7.254,-15.86254 13.12794,-22.42066 2.89025,-3.22689 2.91001,-3.30255 2.20351,-8.43287 -0.77424,-5.62181 -0.99654,-6.57187 -1.43497,-6.13238 -0.22997,0.23053 -1.19703,2.66872 -2.1491,5.41822 -4.55123,13.14379 -10.60262,19.958 -16.72177,18.82977 -1.34357,-0.24771 -2.42756,-0.96954 -4.06984,-2.7098 l -2.23846,-2.37209 -1.27201,2.52911 c -5.38817,10.71313 -9.64051,15.14596 -14.52935,15.14596 -5.23159,0 -7.75291,-4.37598 -8.71401,-15.12419 l -0.5262,-5.8841 -2.38053,2.98704 c -3.17367,3.98223 -6.09991,5.77854 -9.4134,5.77854 -2.76322,0 -4.73787,-0.8231 -6.50008,-2.70937 -0.63484,-0.67951 -1.31762,-1.2355 -1.51734,-1.2355 -0.19974,0 -1.54921,1.81962 -2.9989,4.04366 -4.33318,6.64762 -7.60335,9.72169 -11.13772,10.46961 -2.50632,0.53037 -6.41361,-1.61548 -8.06894,-4.43135 -1.26096,-2.14501 -1.30829,-2.46928 -1.29824,-8.89166 0.008,-5.11918 0.33232,-8.58099 1.39799,-14.92243 1.3799,-8.21095 1.36447,-9.4662 -0.12241,-9.96183 -1.75069,-0.58356 -4.86289,5.94503 -7.19338,15.08973 -1.49773,5.87724 -2.16995,6.84358 -5.14894,7.40244 -0.85051,0.15959 -2.37252,0.0677 -3.38224,-0.2042 -3.31265,-0.89203 -3.30994,-0.8817 -3.52304,-13.35324 -0.10517,-6.15366 -0.36113,-11.5634 -0.56885,-12.02165 -0.20768,-0.45826 -0.77957,-0.83319 -1.27083,-0.83319 -2.18436,0 -5.15759,9.91218 -7.24832,24.16468 -0.82428,5.61904 -1.37127,7.99976 -1.99674,8.69092 -1.96955,2.17632 -7.75056,2.36868 -9.67346,0.32185 -1.12175,-1.19403 -2.01254,-4.66179 -3.2636,-12.70491 -1.23383,-7.93221 -1.25706,-28.72568 -0.0343,-30.59201 1.00525,-1.5342 3.98981,-2.45337 6.55745,-2.0196 3.49633,0.59071 3.53294,0.68089 3.80288,9.36186 l 0.24187,7.77632 0.85166,-1.90442 c 4.89293,-10.9409 7.40971,-13.68779 13.16574,-14.36953 2.90247,-0.34374 5.64679,1.06353 7.09344,3.63745 1.10928,1.97374 2.43094,7.05874 2.44175,9.3947 0.0115,2.43714 0.83004,2.2763 2.19123,-0.4304 3.89288,-7.7409 8.8149,-10.94604 14.47075,-9.42308 4.13502,1.11347 6.19813,4.7393 6.19813,10.89296 0,2.83759 -1.46413,11.05398 -3.33513,18.71594 -1.45916,5.9755 -1.79896,9.62346 -0.94559,10.1509 1.04767,0.6475 2.43337,-0.43735 4.44559,-3.48034 3.18576,-4.8178 7.20919,-13.20192 8.36846,-17.43844 2.3332,-8.52662 8.26866,-16.99553 13.7431,-19.60898 2.09268,-0.99901 3.6514,-1.34809 6.76599,-1.51515 3.8176,-0.20482 4.15178,-0.31138 5.89842,-1.8809 1.71421,-1.54049 2.02116,-1.64376 4.14031,-1.39275 3.05716,0.36207 5.11179,1.48464 5.49235,3.0007 0.1702,0.67821 -0.25529,4.37007 -0.9455,8.2042 -1.68351,9.35147 -2.54169,15.69833 -3.15748,23.35248 -0.7782,9.67217 -0.0153,12.51172 2.68261,9.9836 2.62172,-2.45675 8.32794,-14.43708 10.41176,-21.85961 1.7582,-6.26279 4.10426,-10.54735 7.83502,-14.30916 3.49009,-3.51909 6.42923,-4.92678 11.1074,-5.3198 1.51682,-0.12746 2.90942,-0.38242 3.09468,-0.56657 0.18525,-0.18421 0.76529,-1.64085 1.28901,-3.237 1.06505,-3.24608 2.36986,-4.5051 5.13369,-4.95359 2.16647,-0.3516 5.84001,0.92703 6.56717,2.28574 0.27585,0.51538 0.80437,5.04952 1.17455,10.07576 0.9633,13.08071 1.20626,15.0925 1.82029,15.07183 0.29681,-0.01 2.77612,-1.77939 5.50959,-3.93205 3.82498,-3.01228 5.0619,-4.26886 5.36917,-5.4546 0.61799,-2.38486 2.15548,-3.11521 6.09011,-2.89286 2.84573,0.16077 3.52708,0.3765 4.61027,1.45973 l 1.27106,1.27106 -1.39509,5.85467 c -1.17702,4.93931 -1.39513,6.8383 -1.39513,12.14606 0,5.23521 0.13312,6.42452 0.79291,7.08427 2.81125,2.81125 8.74034,-5.48531 14.03278,-19.63602 4.23177,-11.31464 6.15489,-14.28016 10.85376,-16.73672 1.97955,-1.03486 3.05608,-1.26244 6.01859,-1.27229 3.20671,-0.0105 3.79756,0.13264 5.31372,1.2891 2.35758,1.79824 3.41915,4.73501 3.10883,8.6007 -0.27333,3.40534 -1.27592,5.68622 -2.99428,6.81216 -1.8321,1.20045 -3.10163,0.0712 -4.40045,-3.91425 -1.44945,-4.44744 -1.77111,-4.9174 -2.71803,-3.97077 -1.90552,1.905 -4.41207,19.1391 -3.90602,26.8561 0.33017,5.03486 1.01524,7.46928 2.49237,8.85699 1.00643,0.9455 1.14574,0.95911 2.52387,0.24643 3.1353,-1.62133 12.71377,-15.4401 17.88375,-25.80081 5.4367,-10.89514 10.21918,-14.88472 18.3671,-15.32183 3.8176,-0.20482 4.15179,-0.31138 5.89842,-1.8809 1.71422,-1.54049 2.02116,-1.64376 4.14031,-1.39275 3.05716,0.36207 5.11179,1.48464 5.49235,3.0007 0.17021,0.67821 -0.25528,4.37007 -0.9455,8.2042 -2.45832,13.65522 -3.95401,27.84901 -3.3553,31.8412 0.70535,4.70383 3.29407,2.45609 7.80631,-6.77816 5.31272,-10.8724 6.65143,-15.0217 7.44996,-23.09111 0.8637,-8.72753 2.70904,-21.55009 3.76251,-26.14418 1.06615,-4.64917 2.13924,-5.75859 5.5562,-5.7444 2.92772,0.0119 6.24212,1.34747 7.03864,2.83572 0.43636,0.81534 0.3079,2.05473 -0.63336,6.11082 -3.30112,14.22569 -5.33642,33.54514 -4.9931,47.395 0.15906,6.41656 0.34479,7.99833 1.12585,9.58857 1.29395,2.63448 2.42732,2.51412 4.3765,-0.46468 3.02194,-4.61832 7.66258,-16.50414 10.37509,-26.57305 0.81662,-3.03141 2.03802,-4.03719 4.23343,-3.48619 2.47746,0.62179 2.1858,3.46409 -1.48996,14.5203 -5.67565,17.07157 -11.74586,27.5107 -16.51767,28.40588 -2.97638,0.55837 -4.95716,-0.13231 -7.40787,-2.58302 -2.884,-2.88396 -4.15473,-6.21222 -5.15788,-13.50906 -0.42302,-3.07683 -0.93569,-5.59424 -1.13922,-5.59424 -0.20359,0 -1.14861,1.5533 -2.10001,3.45177 -5.84662,11.66629 -9.95331,16.06855 -14.98966,16.06855 -5.23158,0 -7.75289,-4.37598 -8.714,-15.12419 l -0.52619,-5.8841 -2.38053,2.98704 c -3.17367,3.98223 -6.09991,5.77854 -9.41342,5.77854 -1.38327,0 -3.18109,-0.34627 -4.00209,-0.77082 -1.37156,-0.70925 -2.0113,-1.37437 -4.36374,-4.53681 l -0.83661,-1.12475 -2.59473,3.98139 c -3.47619,5.3339 -8.51033,10.34838 -12.08841,12.04108 -8.02804,3.79785 -14.06728,-1.68103 -16.49348,-14.96328 -0.31089,-1.70208 -0.71106,-3.25869 -0.88927,-3.45918 -0.1782,-0.20049 -1.32224,1.21139 -2.5424,3.13748 -2.73642,4.31965 -6.0741,7.5058 -9.05571,8.6445 -1.96565,0.75067 -2.52783,0.78543 -4.26924,0.26367 -1.16807,-0.34994 -2.8281,-1.42346 -3.97552,-2.57092 -2.62216,-2.6221 -3.86284,-6.67514 -4.57419,-14.94252 -0.29856,-3.46962 -0.67592,-6.3084 -0.83865,-6.3084 -0.16268,0 -1.91232,1.5533 -3.88807,3.45177 l -3.59221,3.45176 0.01,10.95042 c 0.0143,15.83412 -1.67384,25.71146 -5.50178,32.19429 -4.49615,7.61455 -11.8177,10.90362 -17.54391,7.88131 z m 7.16616,-9.93156 c 2.33958,-2.51126 3.99432,-9.86609 4.54666,-20.20848 0.31442,-5.88719 0.13035,-8.26918 -0.63894,-8.26918 -0.49724,0 -3.17581,4.238 -5.09285,8.05779 -4.09417,8.15783 -4.78314,18.91976 -1.33948,20.92154 1.22831,0.71397 1.42923,0.67402 2.52461,-0.50167 z M 626.95916,828.3705 c 2.88134,-4.93031 8.88808,-20.218 8.88808,-22.62086 0,-1.35828 -1.84495,-0.84733 -3.95129,1.09424 -5.5034,5.07284 -11.04617,20.03793 -8.73059,23.57197 1.06639,1.62751 1.91456,1.17026 3.7938,-2.04535 z m 149.97317,0 c 2.88134,-4.93031 8.88807,-20.218 8.88807,-22.62086 0,-1.35828 -1.84495,-0.84733 -3.95128,1.09424 -5.5034,5.07284 -11.04617,20.03793 -8.73059,23.57197 1.06638,1.62751 1.91456,1.17026 3.7938,-2.04535 z m -106.92578,-0.30457 c 2.31264,-3.56046 7.73795,-18.93389 7.73795,-21.9266 0,-1.84547 -1.95727,-1.53234 -3.84241,0.61475 -3.31335,3.77371 -7.10801,14.38723 -7.10801,19.88087 0,3.85636 1.26977,4.42197 3.21247,1.43098 z m -183.29496,26.7295 c -2.6392,-0.98491 -4.0298,-2.02253 -5.58172,-4.16491 -4.42754,-6.11206 -2.20084,-15.9952 5.43179,-24.10869 l 3.54871,-3.77233 -2.63744,-3.93934 c -1.46588,-2.18951 -2.81835,-3.75762 -3.04483,-3.53018 -0.22406,0.22501 -1.2914,2.53422 -2.37187,5.13152 -5.30476,12.75252 -10.76774,20.86721 -15.74694,23.39033 -9.38689,4.75672 -16.01789,-5.84315 -15.00664,-23.98861 0.3016,-5.41189 1.39186,-11.9051 2.2765,-13.55805 1.26666,-2.36677 7.02202,-2.78341 10.36513,-0.75035 1.47036,0.89418 1.55744,1.08972 1.31486,2.95239 -0.14282,1.09708 -0.84109,4.45858 -1.55158,7.46994 -2.11524,8.96521 -1.72421,17.97964 0.80096,18.46594 2.69233,0.51852 9.60637,-10.47365 14.01077,-22.27478 1.17446,-3.14672 1.33715,-4.24934 1.37023,-9.28405 0.0324,-4.92046 0.18206,-5.98398 1.07919,-7.66396 1.78173,-3.3366 5.16831,-4.69926 8.36217,-3.36478 2.40747,1.00591 3.37744,2.66595 3.03256,5.19011 -0.86099,6.30188 -0.87998,8.23929 -0.0992,10.12496 1.12776,2.72375 6.08697,9.8279 6.67967,9.56876 8.53913,-3.73347 13.28581,-5.02329 15.03702,-4.08603 1.31001,0.70106 1.85971,2.31015 1.31905,3.86112 -0.36027,1.03338 -1.17241,1.52016 -4.57665,2.74308 -4.68417,1.6827 -8.18554,3.61949 -8.18554,4.5278 0,0.33699 0.41916,1.83096 0.93145,3.31998 4.87466,14.16837 -0.88608,27.37611 -12.30399,28.20967 -1.5971,0.11664 -3.3893,-0.0723 -4.45363,-0.46954 z m 5.80768,-7.65053 c 1.57252,-2.5444 2.53716,-7.1751 2.18322,-10.48027 -0.44001,-4.10855 -0.92341,-4.68388 -2.42275,-2.88353 -2.34392,2.81445 -3.76776,6.44194 -3.95168,10.06772 -0.1495,2.94758 -0.04,3.53461 0.81843,4.39317 1.21393,1.21392 2.12828,0.9165 3.37278,-1.09709 z M 306.67979,802.66181 c -1.20397,-1.33043 -1.72574,-3.69286 -1.72574,-7.81446 0,-6.0003 1.28877,-7.96262 5.22955,-7.96262 3.21018,0 6.19698,2.13224 6.19698,4.42397 0,1.92475 -3.05222,8.14221 -4.98986,10.16447 -2.15333,2.24731 -3.45548,2.57587 -4.71093,1.18864 z m 405.64172,0 c -1.20402,-1.33043 -1.72574,-3.69286 -1.72574,-7.81446 0,-6.0003 1.28876,-7.96262 5.22949,-7.96262 3.21023,0 6.19703,2.13224 6.19703,4.42397 0,1.92475 -3.05225,8.14221 -4.98991,10.16447 -2.15328,2.24731 -3.45543,2.57587 -4.71087,1.18864 z m -253.093,-1.58158 c -1.96683,-3.23418 -1.82276,-11.00402 0.24234,-13.06913 0.92978,-0.92979 1.61647,-1.12637 3.93424,-1.12637 3.78009,0 5.97822,1.3948 6.19023,3.92801 0.31908,3.81289 -5.25258,11.78346 -8.237,11.78346 -0.84721,0 -1.48321,-0.45267 -2.12981,-1.51597 z m 16.17124,-30.88628 c -18.87827,-2.338 -33.9583,-9.20011 -41.11507,-18.70922 l -2.62193,-3.48376 -30.10547,-0.31646 c -16.55801,-0.17411 -92.04118,-0.31771 -167.7404,-0.31918 -95.56133,0 -138.191041,-0.15707 -139.454049,-0.50777 -2.324017,-0.64536 -5.461354,-3.468 -6.576726,-5.91699 -2.731842,-5.99835 1.271201,-13.74069 7.646674,-14.78949 3.269561,-0.53782 4.276953,-1.16852 4.792341,-3.00018 0.57337,-2.03792 20.02051,-73.38259 34.60305,-126.94634 12.62768,-46.38317 12.36464,-45.47395 13.37312,-46.22572 1.19336,-0.88966 7.88841,-2.92572 11.77085,-3.57974 2.09549,-0.35299 5.56658,-0.45288 9.38775,-0.2701 l 6.06291,0.29 0.94916,-3.19743 c 0.52205,-1.7586 3.20706,-10.80126 5.96666,-20.09488 2.7596,-9.29358 5.01743,-17.2454 5.01743,-17.67069 0,-0.42531 0.41678,-1.30311 0.92612,-1.95066 1.96989,-2.50431 13.14512,-4.54537 21.76206,-3.97472 2.65881,0.17611 4.94302,0.14407 5.07605,-0.0711 0.13296,-0.21524 3.05649,-10.56558 6.49668,-23.00086 3.44016,-12.43524 6.56569,-23.08406 6.94562,-23.66403 0.37994,-0.57997 0.69073,-1.17185 0.69073,-1.31529 0,-0.14345 -1.22087,-0.80076 -2.71313,-1.46069 -3.65891,-1.61815 -5.67808,-3.23688 -6.81335,-5.4622 -1.73698,-3.4048 -1.14594,-6.86292 1.96126,-11.47431 0.99131,-1.47124 1.93466,-3.20192 2.0963,-3.84594 0.16164,-0.64404 -0.14859,-2.90395 -0.68935,-5.02204 -1.32248,-5.17952 -1.25759,-6.11082 0.69783,-10.01948 1.98221,-3.96224 4.19977,-6.07845 7.14719,-6.82062 3.36697,-0.84781 3.23676,-1.38579 -0.73454,-3.03426 -7.10439,-2.94903 -13.96606,-8.44513 -16.00189,-12.8173 -2.50141,-5.37198 -1.12789,-9.8846 4.15092,-13.6375 4.90603,-3.48791 7.16215,-5.76656 8.46005,-8.54457 1.13242,-2.42366 1.22989,-3.16788 1.30992,-9.99821 0.081,-6.90622 0.17826,-7.62994 1.51706,-11.28137 1.63799,-4.46744 4.28671,-8.71388 6.47755,-10.38491 0.82843,-0.63188 2.78265,-1.74658 4.34275,-2.47711 2.5634,-1.20034 3.38668,-1.33608 8.54919,-1.4095 4.1992,-0.0597 5.80176,-0.24893 6.0491,-0.71416 0.18507,-0.3481 0.75591,-1.63575 1.26858,-2.86147 1.79287,-4.28648 6.55664,-6.58733 16.66893,-8.05088 8.66402,-1.25394 11.1361,-2.44852 19.56092,-9.45258 4.87785,-4.05525 7.3764,-5.0381 11.76571,-4.62822 5.53054,0.51645 8.99487,2.80441 13.57733,8.96684 1.33029,1.789 2.51898,3.25272 2.64148,3.25272 0.12255,0 2.07487,-0.57758 4.33852,-1.28353 6.90533,-2.15348 11.70195,-1.65185 15.02021,1.5708 4.31099,4.18679 5.99092,10.87301 6.02849,23.99411 0.0381,13.2708 -1.88651,25.14764 -7.16238,44.20017 -1.57082,5.67264 -3.06622,11.81361 -3.32317,13.64662 -0.25695,1.833 -0.68792,4.48677 -0.95773,5.89727 -0.26981,1.41049 -0.49058,3.85212 -0.49058,5.42584 0,2.72636 0.0992,2.96729 2.10243,5.10896 5.11438,5.46767 7.59641,14.22194 7.52327,26.53489 l -0.0405,6.78296 1.99179,1.15176 c 1.31219,0.75874 4.59117,1.66588 9.60951,2.65848 9.51849,1.8827 23.14293,5.14136 32.01705,7.65773 3.7309,1.05794 6.99067,1.79548 7.24391,1.63896 0.66413,-0.41046 -1.7251,-6.6633 -3.70118,-9.68631 -3.25165,-4.97441 -12.34285,-10.80315 -17.70595,-11.352 -2.15468,-0.22051 -2.99553,-0.0716 -4.74556,0.84056 -4.50357,2.34742 -10.28339,0.69787 -12.73767,-3.63531 -1.47869,-2.61077 -1.47802,-6.87886 0,-9.49118 2.80788,-4.95753 9.4665,-6.28699 14.03982,-2.80321 2.16621,1.65011 3.07951,3.20875 3.69728,6.30974 l 0.53167,2.66876 4.09732,1.47397 c 2.25353,0.81068 5.53552,2.37572 7.29332,3.47786 1.7578,1.10214 3.36386,1.83146 3.56902,1.62071 0.20515,-0.21074 0.15114,-1.45441 -0.12002,-2.76371 -0.27117,-1.30929 -0.63081,-5.68041 -0.79921,-9.71361 l -0.30619,-7.33308 -1.86122,-0.64301 c -4.25679,-1.47061 -7.40817,-5.72408 -7.41817,-10.01243 -0.0177,-7.55697 8.15015,-12.84638 15.01923,-9.72635 1.06204,0.4824 2.71334,1.79109 3.66955,2.90821 3.75527,4.38719 3.36837,10.25029 -0.95798,14.51706 l -2.26203,2.2309 0.0674,7.93394 c 0.0692,8.14713 1.22135,16.22044 2.36924,16.60228 0.29273,0.0974 1.02414,-1.06329 1.62534,-2.57927 2.10499,-5.30784 7.33787,-13.54539 11.52936,-18.14936 1.17555,-1.29125 1.78307,-2.3591 1.62515,-2.85662 -0.1387,-0.437 -0.57823,-1.65154 -0.97673,-2.69897 -1.88618,-4.95766 0.26072,-10.15841 5.12924,-12.42532 3.93579,-1.83261 7.61999,-1.31258 10.75285,1.51777 2.39065,2.15981 3.35033,4.29012 3.33752,7.40871 -0.0247,6.06119 -4.02183,9.92626 -10.26519,9.92626 -2.49498,0 -2.80804,0.12863 -4.34546,1.78539 -6.98055,7.52248 -12.39274,17.47217 -14.16118,26.03373 -0.84293,4.08088 -0.70964,5.40027 0.91849,9.09164 l 1.05551,2.39312 8.52413,3.02965 c 31.51403,11.2007 56.53968,25.10249 72.45702,40.24988 2.35096,2.23727 4.42083,4.06775 4.5997,4.06775 0.44673,0 9.93856,-6.71908 10.38123,-7.34874 0.90771,-1.29095 -0.0509,-1.89042 -5.1175,-3.20052 -10.05292,-2.59944 -16.9126,-5.25506 -28.32827,-10.9667 -13.17788,-6.59344 -18.1463,-9.96555 -25.46986,-17.28662 -7.08839,-7.08601 -9.95823,-12.1657 -11.51801,-20.38721 -1.34813,-7.10589 -0.1985,-13.66007 3.06475,-17.47243 3.33776,-3.89943 8.13728,-5.11147 14.09536,-3.55959 9.22499,2.40279 18.31084,8.2956 29.29325,18.99868 8.57257,8.35449 15.46538,17.4932 22.37991,29.67192 1.37233,2.41709 2.67133,4.50357 2.88662,4.63664 0.86799,0.53643 1.05443,-2.77693 1.31182,-23.31454 0.27314,-21.79333 -0.0948,-33.48719 -1.57315,-49.99105 -1.03082,-11.50781 -1.46845,-14.60978 -2.11786,-15.01112 -0.31371,-0.19388 -1.88319,-0.49567 -3.4877,-0.67066 -9.79097,-1.06777 -29.87347,-7.13477 -42.82058,-12.93625 -19.86618,-8.90189 -35.88058,-24.1807 -43.86016,-41.84556 -1.93162,-4.27616 -1.93559,-4.29714 -1.93559,-10.23625 0,-5.11633 0.14609,-6.26758 1.04121,-8.20547 1.34725,-2.91669 5.26728,-6.81851 8.13117,-8.09342 7.28263,-3.24196 20.08517,1.32602 32.56735,11.62015 5.11988,4.22239 15.99198,15.11711 20.82302,20.86631 5.66045,6.73625 17.50858,21.72106 22.86905,28.9234 2.19256,2.9459 4.1673,5.35618 4.3883,5.35618 0.68674,0 0.4525,-2.44651 -1.00815,-10.52838 -3.47109,-19.20637 -7.82435,-36.51529 -13.64665,-54.26 l -3.09264,-9.42554 -4.48181,-3.17692 c -5.30368,-3.75952 -11.1163,-9.67007 -12.82406,-13.04017 -0.67154,-1.32523 -1.38623,-2.40951 -1.5882,-2.40951 -5.95373,0 -16.9383,-0.59918 -21.3571,-1.16496 -37.30659,-4.77677 -83.07329,-19.72251 -98.10755,-32.03834 -2.82145,-2.31132 -4.5559,-5.98248 -4.1185,-8.71755 0.50928,-3.185 2.87005,-5.37344 7.54398,-6.99331 4.31789,-1.49646 4.08798,-1.20663 6.96323,-8.77693 2.15371,-5.67044 3.84779,-7.84206 7.50451,-9.61985 1.35538,-0.65894 2.14909,-1.33856 2.05158,-1.75662 -0.0875,-0.37503 -0.51395,-1.96736 -0.94768,-3.5385 -0.52096,-1.88702 -0.79019,-4.71506 -0.79319,-8.33185 -0.006,-7.50023 1.10389,-10.76236 5.12513,-15.06107 3.5885,-3.83614 5.68193,-5.06839 10.81989,-6.36892 5.54768,-1.40422 7.19447,-2.45809 10.48227,-6.70814 3.42694,-4.42989 4.97634,-5.78429 7.89012,-6.89708 1.94248,-0.74184 2.67946,-0.78172 5.85109,-0.31664 7.149,1.04831 13.62511,4.43671 20.10665,10.52009 l 4.23262,3.97261 9.5e-4,-8.97171 c 9.6e-4,-4.93445 0.23665,-10.89994 0.52427,-13.25666 1.45853,-11.95162 7.16388,-21.93299 14.62231,-25.58142 3.10015,-1.51648 3.3416,-1.55642 9.37151,-1.55045 3.40415,0.003 9.09318,0.19524 12.64229,0.42639 7.82846,0.50988 8.83781,0.24768 16.41402,-4.26355 6.20571,-3.69519 9.28839,-4.71775 13.16308,-4.36641 4.86955,0.44155 8.35993,2.49767 14.61762,8.61093 3.04303,2.97282 6.40262,5.84707 7.46576,6.38721 2.52631,1.28353 6.73922,2.31359 11.07121,2.70692 4.29581,0.39005 7.03374,1.32285 8.8309,3.00864 1.43717,1.34808 3.132,4.52359 3.14996,5.90182 0.006,0.44121 0.21557,1.34164 0.46624,2.00095 l 0.45578,1.19877 2.73837,-1.64895 c 1.50611,-0.90694 3.49704,-1.85973 4.4243,-2.11733 5.16579,-1.43509 10.42428,0.3466 13.35052,4.52342 3.28236,4.68512 5.16984,6.14581 9.803,7.58638 6.0792,1.89017 7.54789,2.5709 9.17565,4.25286 5.07176,5.24053 3.43086,15.28569 -4.50305,27.56722 -13.98974,21.65569 -41.14454,49.24581 -66.81277,67.88375 -4.56356,3.31367 -9.08712,6.77472 -10.05239,7.69122 l -1.75492,1.66637 -0.26519,5.23716 c -0.40993,8.0945 -3.1112,16.58801 -6.82373,21.4554 l -1.29034,1.69175 2.91257,8.66089 c 9.63594,28.6538 16.48458,61.76512 19.3692,93.6457 0.99164,10.95953 1.18365,12.37874 1.67451,12.37874 0.2272,0 3.25047,-4.12426 6.71837,-9.16503 12.37517,-17.98803 19.90892,-27.5517 28.03494,-35.58887 4.1037,-4.0588 9.39656,-8.77224 11.76199,-10.47431 l 4.30075,-3.09469 0.27391,-7.14158 c 0.15064,-3.92787 0.41631,-7.714 0.59041,-8.41362 0.2743,-1.10238 0.10366,-1.38017 -1.27924,-2.08274 -6.97713,-3.54468 -18.52688,-18.31022 -23.84416,-30.48312 -4.8001,-10.98895 -6.4986,-19.3903 -5.91266,-29.24605 0.70797,-11.90818 4.64288,-20.41817 10.87786,-23.52518 3.22004,-1.60462 8.26862,-1.73339 10.98018,-0.28008 0.97711,0.52372 1.96956,0.9522 2.20532,0.9522 0.23576,0 1.03134,-1.96445 1.76783,-4.36545 2.6559,-8.65799 6.74322,-12.77433 12.6843,-12.77433 2.63491,0 4.58499,1.06084 7.38978,4.01999 2.86906,3.02701 4.16215,3.4198 8.62973,2.62139 3.87912,-0.69323 5.98546,-0.37797 8.1514,1.22001 0.88313,0.65153 1.75312,1.18461 1.93332,1.18461 0.18026,0 1.23541,-1.39317 2.34477,-3.09592 4.24915,-6.52182 10.55878,-10.88633 15.66844,-10.83819 3.26985,0.0308 5.80177,1.20747 10.98142,5.10343 2.22307,1.67214 4.54452,2.96372 6.18298,3.44004 2.50974,0.72959 2.81812,0.71576 7.1104,-0.31901 5.30719,-1.27944 9.71155,-1.13698 13.93788,0.45082 4.93175,1.85285 7.85236,6.69377 8.35732,13.85242 0.29609,4.19758 -0.48563,7.43336 -3.00375,12.43374 -0.89474,1.77665 -1.62675,3.41892 -1.62675,3.64949 0,0.23058 1.76754,0.43367 3.92786,0.45134 7.05907,0.0577 13.3838,2.85219 16.08093,7.10511 2.05345,3.23799 2.37281,4.90777 2.04259,10.67954 -0.45559,7.96228 0.60965,10.08469 7.48394,14.91164 4.72407,3.31708 8.29733,7.02474 9.88433,10.25597 1.10952,2.25917 1.28734,3.21304 1.28734,6.90616 0,3.80826 -0.16411,4.62922 -1.47539,7.37964 -0.81143,1.70207 -2.35487,4.20071 -3.42987,5.55252 -7.82512,9.84045 -31.11852,15.85179 -61.51142,15.8743 -4.0588,0.003 -11.66458,0.3221 -16.90174,0.70911 -5.23715,0.387 -11.66457,0.70608 -14.28316,0.70907 -2.61858,0.003 -7.11777,0.23846 -9.99821,0.52328 -4.45534,0.44053 -5.71664,0.7643 -8.4491,2.16882 -4.45401,2.2894 -8.20606,3.50532 -10.81669,3.50532 -3.74785,0 -9.42736,3.96651 -19.50022,13.61873 -5.40928,5.18337 -16.70025,18.68531 -16.70025,19.97043 0,0.50727 1.72874,0.002 7.19743,-2.10139 9.91037,-3.81274 21.43868,-6.19167 34.69983,-7.16051 9.6995,-0.70863 18.61938,0.58683 24.75748,3.5956 4.52319,2.21716 9.69412,7.23214 11.68458,11.33217 1.73235,3.56834 2.12076,7.92817 0.97386,10.93125 -0.90726,2.37563 -5.97821,7.50935 -9.36675,9.48267 -2.83235,1.64945 -8.85851,3.17697 -12.53289,3.17684 -5.04515,-1.6e-4 -17.56358,-2.23261 -34.93194,-6.22953 -20.52838,-4.72412 -34.7216,-5.08438 -38.19308,-0.96941 -0.65464,0.77599 -2.44337,3.60104 -3.97495,6.27789 l -2.78475,4.867 0.0603,19.80889 c 0.0576,18.9446 -0.27862,28.90251 -1.44546,42.80701 -0.29238,3.484 -0.4344,6.43166 -0.31566,6.55045 0.11879,0.11874 5.23116,-2.33259 11.36082,-5.44741 6.12962,-3.11486 15.07711,-7.33496 19.88326,-9.37808 4.80609,-2.04311 8.84779,-3.99981 8.98153,-4.34827 0.60694,-1.58172 -4.5269,-10.88076 -9.30262,-16.8499 l -3.00918,-3.76117 h -2.36228 c -8.98973,0 -13.65866,-9.97234 -7.66268,-16.36664 3.80736,-4.06026 9.7343,-4.11279 13.72545,-0.12163 2.90662,2.9066 3.68034,6.3425 2.26568,10.06085 -0.39849,1.04743 -0.83418,2.24718 -0.96815,2.6661 -0.14545,0.45488 0.54751,1.67572 1.72049,3.03099 3.07456,3.55238 6.55289,8.95347 8.92237,13.8546 1.19435,2.47041 2.32858,4.49162 2.52059,4.49162 0.57099,0 0.93921,-3.26017 0.94093,-8.33184 0,-5.25736 -0.25443,-7.24666 -2.44118,-18.95018 l -1.49474,-7.99977 -1.71746,-0.8836 c -3.35592,-1.72663 -5.76953,-5.36912 -5.75963,-8.69224 0.005,-0.85945 0.52191,-2.67364 1.15413,-4.03153 3.33864,-7.17071 13.72117,-7.12873 16.99048,0.0686 1.83848,4.04741 0.8578,8.17794 -2.72194,11.46452 l -2.16475,1.98746 1.47944,7.56702 c 0.81371,4.16186 1.60781,8.8525 1.76459,10.42364 0.45225,4.53112 0.71763,4.58524 3.23152,0.65899 1.34038,-2.09348 4.35084,-5.55786 7.442,-8.5642 3.99029,-3.88079 5.26225,-5.42258 5.49907,-6.66547 0.60822,-3.19246 2.84782,-6.03737 5.55924,-7.06181 1.852,-0.69975 5.28886,-0.63381 7.13329,0.13683 3.3644,1.40574 6.02445,6.17666 5.30443,9.51385 -0.88046,4.08119 -3.12262,6.49226 -7.0025,7.52995 -2.46252,0.65862 -5.27716,0.0721 -7.60869,-1.58562 -1.30115,-0.92509 -1.31767,-0.92491 -2.6551,0.0274 -2.62928,1.87222 -7.69742,7.71148 -9.77796,11.26569 -2.25317,3.84903 -4.42488,9.11099 -3.95448,9.58139 0.15663,0.15663 4.63098,-1.15271 9.94303,-2.90961 16.35692,-5.40997 34.07647,-10.28972 51.97317,-14.31278 3.89573,-0.87574 7.24833,-1.76852 7.45019,-1.98396 0.20187,-0.21545 0.95412,-1.89145 1.67171,-3.72445 0.71753,-1.833 2.02483,-4.32556 2.90505,-5.53899 0.88026,-1.21344 1.60047,-2.43563 1.60047,-2.71596 0,-0.28033 -2.64934,-5.82206 -5.88742,-12.31495 -10.65243,-21.35993 -12.48677,-26.3534 -13.61214,-37.05474 -1.43693,-13.66432 3.42134,-24.94106 11.11902,-25.80869 1.76068,-0.19846 2.57244,0.0202 4.88879,1.31736 5.78025,3.23668 6.24579,3.41874 7.84459,3.06758 1.00892,-0.22159 3.01575,-1.75173 5.89532,-4.49498 4.60866,-4.39041 7.11764,-5.72637 10.75427,-5.72637 2.43224,0 4.01747,0.67158 6.97971,2.95689 1.38204,1.06625 2.62468,1.82678 2.76141,1.69005 0.13674,-0.13672 1.79173,-2.57023 3.67772,-5.40777 3.8525,-5.79615 6.27117,-7.94787 9.77978,-8.70034 5.62365,-1.20606 7.6521,0.8601 11.68504,11.90242 0.44255,1.21176 1.22612,2.5846 1.74122,3.05077 0.9017,0.81603 1.05891,0.79832 4.22444,-0.47603 4.5,-1.81156 8.33412,-1.623 11.51622,0.56635 2.88819,1.98711 3.73995,3.39402 4.35902,7.19986 0.65479,4.02566 1.25283,4.91904 4.69088,7.00755 l 2.80141,1.70177 3.19086,-1.27655 c 4.37483,-1.75021 8.97672,-1.78029 12.3166,-0.0805 4.1904,2.13266 5.26434,3.9231 6.79717,11.33182 1.11666,5.3971 2.61463,9.50403 4.1184,11.29116 0.61151,0.72678 3.02875,2.3605 5.37157,3.63052 6.17912,3.34956 9.95588,6.57238 11.66048,9.95018 2.12605,4.21284 2.59072,7.84372 1.62933,12.73088 -0.71974,3.65878 -0.72459,4.28644 -0.0547,7.10785 0.40417,1.70207 0.776,4.52887 0.82642,6.28177 0.0894,3.10945 0.0467,3.23338 -1.76029,5.0873 l -1.85191,1.90021 3.14382,1.4854 c 3.74765,1.77069 6.59819,4.76975 7.46037,7.84906 0.48268,1.72399 0.48087,3.33734 -0.01,8.28656 -0.72915,7.36189 -0.43411,12.23763 0.95264,15.74539 0.56447,1.42779 1.17303,4.20453 1.35233,6.17057 l 0.32604,3.57459 1.90442,0.68892 c 6.83016,2.47089 9.4723,3.60731 10.48784,4.511 0.97311,0.86595 1.92522,4.01277 6.06991,20.06227 l 4.91579,19.03522 6.8791,0.0405 c 9.9477,0.0581 17.88332,1.81191 21.19792,4.68478 l 1.71027,1.48235 21.98011,88.07948 21.98012,88.07948 4.523,0.25776 c 5.19484,0.29604 7.61339,1.28458 9.8848,4.04013 4.44101,5.3878 2.49246,13.55006 -3.93349,16.47662 -1.83091,0.83385 -8.51704,0.86775 -173.16025,0.8778 l -171.25578,0.0105 -2.10359,3.2518 c -5.80077,8.96711 -18.4903,15.54613 -35.55487,18.43385 -5.36466,0.90783 -21.45764,1.30876 -26.6619,0.66421 z m 383.26476,-44.2676 c 0,-0.73668 -3.46738,-2.12176 -14.28315,-5.7055 -30.56435,-10.12738 -69.3643,-16.36626 -121.88296,-19.59826 -13.27458,-0.8169 -65.15906,-0.82404 -78.08126,-0.011 -47.95109,3.01807 -84.64615,9.57457 -108.31396,19.35291 -2.35672,0.97368 -4.48706,1.96589 -4.73411,2.20489 -0.63674,0.61603 1.98865,3.22695 3.764,3.74324 2.14438,0.6236 323.53144,0.63693 323.53144,0.0134 z m -421.59974,-1.87876 c 1.01809,-1.04262 1.73412,-2.01264 1.59118,-2.15561 -0.5279,-0.5279 -11.71599,-3.61478 -18.91513,-5.21883 -23.33713,-5.19974 -55.21314,-8.71468 -93.28185,-10.28611 -17.96064,-0.74139 -70.10117,-0.31919 -87.20745,0.70616 -33.00766,1.9785 -56.57568,4.48301 -81.38657,8.64859 -20.4641,3.43587 -41.9494,8.52981 -41.18611,9.76483 0.16278,0.26338 63.42265,0.43663 159.40233,0.43663 H 435.21368 Z M 845.70921,637.681 c -14.52025,-58.29762 -21.2331,-84.47279 -21.81229,-85.05197 -1.49173,-1.49174 -9.10266,-2.97547 -15.55278,-3.03194 -3.30951,-0.029 -6.00783,0.15379 -6.27746,0.42526 -0.31336,0.31552 -0.0152,2.16218 0.88376,5.47521 1.23625,4.55571 9.07099,34.92032 27.1489,105.21927 3.66996,14.27125 6.6708,26.49407 6.66847,27.1618 -0.01,2.95738 -1.62157,3.00219 -9.20236,0.25587 -19.30397,-6.99323 -45.54575,-11.63983 -77.21489,-13.67228 -11.5915,-0.74391 -44.73052,-0.74481 -57.37069,0 -56.91448,3.34655 -108.83891,14.11948 -145.92627,30.27583 -10.1059,4.4024 -23.0911,11.65015 -23.0911,12.88836 0,1.32086 1.5481,0.98197 6.90233,-1.51092 39.93905,-18.59525 130.47518,-26.74317 215.91494,-19.43153 47.092,4.02999 88.7684,12.61556 113.78916,23.44124 3.01137,1.30296 5.61938,2.23484 5.79559,2.07086 0.17621,-0.16396 -9.11871,-38.19497 -20.65531,-84.51345 z m -731.56387,82.05703 c 32.56337,-9.99821 82.55675,-16.73981 141.05571,-19.02126 15.89102,-0.61975 57.06094,-0.61727 72.12995,0.005 48.24857,1.99035 85.59474,7.06211 111.04984,15.08101 l 7.02081,2.21171 2.38227,-1.11581 c 1.31025,-0.6137 2.38228,-1.30871 2.38228,-1.54453 0,-1.18517 -19.67302,-9.4884 -33.80348,-14.26717 -39.109,-13.22619 -84.54775,-21.42254 -137.11835,-24.73371 -12.34336,-0.77743 -49.73467,-0.77901 -60.70342,-0.005 -32.38264,2.2923 -57.82475,6.81669 -76.63482,13.62804 -3.99742,1.44755 -4.94182,1.63508 -6.00859,1.19322 -2.99066,-1.23878 -3.10706,-0.60904 5.53568,-29.94517 10.48712,-35.59663 29.94583,-101.35101 31.14367,-105.24008 0.64817,-2.10424 0.79461,-3.23728 0.46163,-3.57078 -0.7074,-0.70854 -9.01006,-0.90751 -12.50096,-0.29962 -4.58984,0.79928 -7.87587,1.90137 -8.35693,2.80273 -0.23991,0.44945 -5.3998,19.02822 -11.46647,41.28614 -6.06668,22.25793 -16.15798,59.27778 -22.42509,82.26638 -6.26716,22.99041 -11.39481,42.11199 -11.39481,42.49421 0,0.9692 0.23081,0.93021 7.25108,-1.22531 z m 407.35531,-7.78627 c 52.94591,-34.91085 175.70689,-53.0218 266.22417,-39.27607 12.59537,1.9127 26.17017,5.00753 37.0221,8.44044 2.4249,0.76706 4.51909,1.21645 4.65373,0.99853 0.24187,-0.3913 -2.34572,-10.59838 -21.47715,-84.71984 -20.29318,-78.62226 -22.71184,-87.85641 -23.15905,-88.41856 -0.48853,-0.61413 -3.81746,-1.95179 -7.78203,-3.1271 l -2.41057,-0.71459 -2.75732,1.85353 c -1.51654,1.01939 -3.93139,2.19479 -5.36637,2.61196 -2.4659,0.71682 -2.59197,0.82775 -2.29845,2.02226 0.17077,0.69511 2.9878,11.44057 6.26002,23.87882 28.90274,109.86349 29.73683,113.13804 29.18678,114.58464 -0.83061,2.1848 -2.19303,2.30106 -8.36688,0.71397 -76.86625,-19.75985 -188.36791,-0.087 -256.51215,45.25785 -9.50588,6.32549 -21.90527,16.19311 -21.57876,17.17269 0.12959,0.38883 2.25264,1.40775 3.59697,1.72631 0.0841,0.02 2.22832,-1.33223 4.76496,-3.00484 z m -58.93046,-0.30519 c 1.32596,-0.70963 0.8181,-1.46497 -4.75826,-7.07654 -49.32721,-49.63864 -172.03577,-73.9641 -271.53692,-53.82884 -10.23056,2.07029 -10.81484,2.04749 -11.68767,-0.45631 -0.56762,-1.62822 0.57956,-6.05458 15.86673,-61.22189 20.63073,-74.45078 22.61167,-81.68439 22.61167,-82.56908 0,-0.75953 -0.46578,-0.97707 -2.68566,-1.25445 -5.1239,-0.64018 -15.6364,0.7382 -17.08376,2.23998 -0.60993,0.63284 -2.89115,8.20201 -26.59643,88.24902 -23.36392,78.89436 -25.89999,87.60904 -25.59189,87.94131 0.1723,0.18592 2.34652,-0.30738 4.8316,-1.09618 39.04316,-12.39279 100.65185,-15.96596 163.2994,-9.47103 55.20293,5.72307 108.24399,19.14458 140.9272,35.66014 6.41628,3.24228 7.64628,3.70672 9.42226,3.55775 1.12346,-0.0943 2.46526,-0.39745 2.98173,-0.67388 z m 46.73631,-3.1272 c 18.76622,-16.99757 43.71237,-31.7894 74.12607,-43.95309 65.30751,-26.11913 143.18357,-34.02843 203.46784,-20.66468 3.08291,0.68341 5.72482,1.12309 5.87089,0.97706 0.40255,-0.40259 -2.44528,-11.43176 -28.72881,-111.26218 l -6.07425,-23.07135 -6.16804,-1.37152 c -3.39239,-0.75429 -8.8557,-2.33791 -12.14068,-3.51913 -5.27072,-1.89523 -15.2247,-5.18221 -35.25312,-11.6412 -5.61576,-1.81106 -9.3719,-3.35222 -27.13801,-11.13506 -4.05878,-1.77806 -8.83427,-3.60807 -10.61214,-4.0667 -3.16982,-0.81766 -3.28523,-0.81442 -5.95131,0.16845 -2.15562,0.79466 -3.85294,1.00773 -8.19401,1.02857 -6.47847,0.0309 -8.73992,-0.58203 -16.07913,-4.35979 -2.68985,-1.38457 -5.36795,-2.51543 -5.95132,-2.51304 -1.62213,0.007 -10.60853,4.08381 -19.86682,9.0136 -14.2445,7.58478 -28.46996,15.99461 -27.94439,16.52013 0.1355,0.1355 3.53251,-0.50709 7.54894,-1.42797 10.54345,-2.41748 14.05805,-2.87649 22.06182,-2.88154 8.2112,-0.005 11.28389,0.62194 16.51433,3.37049 6.93676,3.64516 9.6289,9.75983 6.88234,15.63183 -2.09081,4.47 -7.03517,7.9261 -14.82678,10.36385 -6.77597,2.12001 -10.15094,2.49246 -22.37695,2.4696 -12.88278,-0.0238 -13.29757,-0.0875 -34.34185,-5.24967 -5.79511,-1.4216 -10.93704,-2.57883 -11.42653,-2.57169 -1.75602,0.0257 -23.64396,19.60836 -35.16951,31.46557 -3.66601,3.77146 -8.05809,8.58603 -9.76017,10.69894 -2.84135,3.52718 -5.53653,6.73965 -11.24632,13.4046 -1.17622,1.37304 -3.09011,3.94401 -4.25314,5.71326 l -2.11452,3.2169 v 26.54288 c 0,14.59858 0.0868,26.54287 0.19405,26.54287 0.10728,0 2.07877,-1.40442 4.38117,-3.12093 6.86749,-5.11999 16.81443,-10.98583 29.94146,-17.65698 l 12.37874,-6.29082 0.007,-10.15185 c 0.011,-16.47967 1.63375,-30.5524 4.47654,-38.82406 3.72957,-10.85186 12.01684,-19.56207 19.44994,-20.44238 4.81894,-0.57076 9.58895,2.91676 11.35706,8.3036 1.29268,3.9383 1.18779,11.10682 -0.22986,15.70953 -2.47427,8.03351 -8.43078,20.44058 -15.28645,31.84082 -3.12716,5.20017 -3.69325,6.35349 -3.11855,6.35349 0.12651,0 3.07241,-1.05944 6.54646,-2.3543 9.91098,-3.69396 40.7787,-14.60677 43.78463,-15.47937 l 2.71238,-0.78733 0.26495,-2.23508 c 1.4965,-12.6238 7.1303,-29.71831 12.75963,-38.71613 4.31808,-6.90195 10.3002,-12.30737 15.49612,-14.00211 3.24319,-1.05781 8.1095,-0.77034 10.87629,0.64246 2.46895,1.26073 5.08348,4.2709 5.80696,6.68581 0.77358,2.58196 0.68826,8.85379 -0.1663,12.22709 -1.62371,6.40914 -7.13567,15.17124 -14.75398,23.45371 -2.24036,2.43566 -3.97185,4.5927 -3.84783,4.79338 0.12402,0.20073 2.96865,-0.0166 6.32135,-0.48362 6.48716,-0.90299 18.71612,-1.83472 24.08059,-1.83472 h 3.24171 l 1.34033,-2.97567 c 2.10776,-4.67963 5.30433,-9.79829 11.31792,-18.12342 11.46628,-15.87378 20.36874,-22.33533 30.86558,-22.4027 4.29313,-0.0276 6.69042,0.63255 9.6565,2.65899 5.55839,3.79751 6.20756,10.32221 1.85972,18.69038 -3.69382,7.1093 -9.5043,12.05707 -22.38071,19.05772 -2.88987,1.57115 -5.32885,3.0875 -5.42002,3.36965 -0.1565,0.48448 4.16148,1.16603 17.05728,2.69236 4.49381,0.53187 4.63798,0.51787 7.51865,-0.73148 6.31829,-2.74018 18.40414,-4.18863 26.90637,-3.22471 11.48923,1.30258 19.87811,4.84328 25.46097,10.74632 3.2857,3.47418 4.5321,6.28135 4.54599,10.23898 0.0181,5.07818 -2.1607,7.92114 -8.06417,10.52349 -4.77643,2.10553 -14.10971,0.75463 -23.33711,-3.37773 -4.75053,-2.12747 -19.55669,-10.58082 -25.61394,-14.62386 l -5.14142,-3.43171 -8.90368,-1.19874 c -11.75585,-1.58277 -16.28333,-1.95723 -16.28333,-1.34672 0,0.26572 1.99997,1.67661 4.44444,3.13535 8.50738,5.0768 17.08509,13.05071 19.83483,18.4386 3.31465,6.49485 3.70563,12.34003 1.10657,16.54391 -1.61956,2.61952 -6.16747,5.5311 -9.39594,6.01525 -4.40764,0.66097 -11.01817,-2.05721 -15.4588,-6.35653 -4.70455,-4.5548 -13.18284,-18.4018 -18.44408,-30.12342 -1.41646,-3.15577 -3.0368,-6.38576 -3.60074,-7.17772 l -1.02539,-1.44002 -7.41758,0.32008 c -12.11035,0.52252 -28.40196,2.78112 -33.18896,4.60113 -1.35852,0.51648 -1.48059,1.70502 -0.21634,2.10629 1.51777,0.48172 15.65672,9.13636 19.11862,11.70281 4.28185,3.17424 10.23927,9.5452 12.47862,13.34485 3.90074,6.61858 5.10462,15.09197 2.85121,20.06807 -1.43479,3.1684 -3.24218,5.38957 -5.10461,6.27336 -2.23969,1.06281 -7.12035,0.97264 -9.65594,-0.17839 -2.17637,-0.98797 -7.52461,-5.11471 -9.97917,-7.70001 -2.78674,-2.93524 -7.32983,-9.87047 -12.83299,-19.5903 -6.47146,-11.43005 -11.33716,-17.81177 -15.12686,-19.83993 -1.68499,-0.90179 -1.63918,-0.91516 -23.44138,6.84268 -22.51573,8.01171 -26.6,9.56481 -26.54439,10.09367 0.0242,0.23134 1.69145,1.3132 3.70477,2.40414 12.12673,6.57092 21.97335,14.27987 26.79991,20.98173 3.74238,5.1964 6.36115,15.03849 5.37918,20.21638 -1.30552,6.8841 -7.32778,11.95819 -14.2653,12.01933 -5.00134,0.0443 -9.36037,-2.32273 -15.14867,-8.22525 -4.78895,-4.88346 -7.73024,-9.52211 -13.09546,-20.65264 -2.47204,-5.12836 -5.19275,-10.36381 -6.04602,-11.63429 -1.98945,-2.96229 -5.7106,-6.83302 -6.56892,-6.83302 -2.44985,0 -34.37771,17.59504 -36.26999,19.98795 -0.13092,0.16554 -1.95203,1.60861 -4.04689,3.20676 -2.09486,1.59818 -4.50514,3.55564 -5.35618,4.34993 l -1.54735,1.44412 v 18.69013 c 0,11.02946 0.17482,18.50479 0.4265,18.23788 0.23453,-0.24876 1.59167,-2.17599 3.01579,-4.28276 l 2.58935,-3.8304 -0.21382,-6.40586 c -0.15712,-4.70629 -0.006,-7.50889 0.5688,-10.56358 0.75025,-3.98576 0.74544,-4.23201 -0.11589,-5.95132 -1.94798,-3.88864 -1.66646,-6.92471 0.9147,-9.86452 3.67796,-4.18901 11.08463,-3.19414 13.45816,1.80768 0.96887,2.04173 1.00953,5.63089 0.084,7.42048 -1.033,1.99769 -3.39044,3.77852 -5.80767,4.38716 -1.60609,0.40441 -2.25888,0.84824 -2.62115,1.78207 -0.58971,1.5202 -1.15055,10.52754 -0.65545,10.52754 0.19539,0 1.99412,-1.32181 3.99709,-2.93733 3.446,-2.77935 8.70839,-6.36453 11.85036,-8.07332 1.25768,-0.68401 1.44912,-1.07809 1.63966,-3.37567 0.44039,-5.31115 4.03942,-9.01458 8.8306,-9.08686 7.66183,-0.1156 12.13536,9.04991 7.17472,14.69975 -2.80702,3.197 -6.0721,4.05475 -10.07682,2.64719 l -2.61786,-0.92007 -2.77059,1.44084 c -5.92066,3.07902 -15.8635,11.05684 -15.8635,12.72839 0,2.08991 12.10916,4.96902 16.5905,3.94458 1.29206,-0.29538 1.71179,-0.70935 2.22089,-2.19023 1.20636,-3.50904 4.00962,-5.54453 7.63588,-5.54453 5.52682,0 9.23963,4.77177 7.81874,10.04863 -1.47202,5.46664 -8.2711,7.72723 -12.71868,4.22876 -0.90698,-0.71343 -2.00369,-0.85084 -6.67428,-0.83627 -6.40566,0.02 -10.94799,-0.86537 -16.01004,-3.12045 l -3.27951,-1.46097 -1.13684,1.40247 c -1.57415,1.94179 -6.00435,11.11986 -7.49509,15.5275 -0.97287,2.87648 -1.23473,4.57442 -1.23473,8.00604 0,2.39543 0.20563,4.73954 0.45697,5.20922 0.35717,0.6673 1.31928,0.92707 4.40397,1.18892 2.17084,0.18431 5.33962,0.61742 7.04169,0.9625 1.70208,0.34508 3.3554,0.65293 3.67406,0.68417 0.31865,0.0314 2.13976,-1.35657 4.04689,-3.08398 z m -0.32409,-105.25754 c -1.6876,-3.87379 -5.99597,-8.47797 -9.67598,-10.3403 -1.38446,-0.70064 -2.40214,-1.46003 -2.2615,-1.6876 0.14065,-0.22753 1.38565,-1.05138 2.7667,-1.83081 3.72738,-2.10358 8.14573,-7.0547 9.42389,-10.56012 0.57613,-1.5801 1.21644,-2.87291 1.42288,-2.87291 0.20649,0 0.63079,0.80343 0.94288,1.78539 1.32362,4.16431 6.26869,9.88504 10.34039,11.96229 1.07595,0.54891 2.08582,1.20765 2.24422,1.46393 0.15835,0.25628 -0.73763,0.98687 -1.99118,1.62357 -4.49133,2.28125 -8.85479,7.16177 -10.38647,11.61716 -0.33032,0.96087 -0.78891,1.80977 -1.0191,1.88651 -0.23015,0.0767 -1.0432,-1.29448 -1.80673,-3.04711 z M 662.76942,518.1152 c -1.00258,-2.62515 -4.88651,-6.97336 -7.70329,-8.62412 -1.14351,-0.67012 -2.0791,-1.46626 -2.0791,-1.76912 0,-0.30289 0.9644,-1.06232 2.14314,-1.68764 2.80407,-1.48759 5.74416,-4.72278 7.21847,-7.9431 0.65036,-1.42061 1.35195,-2.58292 1.559,-2.58292 0.20711,0 0.74616,0.96777 1.19784,2.15056 1.00939,2.64306 4.79515,6.86949 7.65377,8.54476 1.17075,0.68607 2.11524,1.39908 2.09886,1.58448 -0.0161,0.18534 -1.35233,1.19398 -2.9688,2.24141 -3.21533,2.08348 -6.05805,5.47878 -7.01508,8.37864 -0.33722,1.02167 -0.76396,1.85763 -0.9483,1.85763 -0.18435,0 -0.70482,-0.96779 -1.15651,-2.15058 z m -183.51078,191.34572 4.57303,-0.31218 0.30491,-5.29077 c 0.16768,-2.90991 0.30584,-11.53128 0.30704,-19.15857 0,-12.31228 -0.086,-13.94094 -0.78401,-14.52021 -0.43239,-0.35889 -2.40276,-2.78712 -4.37859,-5.39614 -5.81472,-7.67819 -11.25032,-13.67835 -22.04602,-24.33598 -8.99628,-8.88121 -19.50921,-18.29477 -20.43135,-18.29477 -0.18029,0 -1.80023,1.65732 -3.59987,3.68301 -9.8806,11.12144 -15.66987,16.50961 -22.98194,21.3897 -7.90272,5.27429 -13.3658,7.10991 -19.93934,6.69985 -9.3755,-0.58495 -15.11008,-6.52832 -13.53667,-14.02954 1.40705,-6.70819 7.17335,-14.05905 14.23833,-18.15105 5.00099,-2.89652 19.29119,-8.16186 28.62746,-10.548 1.80375,-0.46102 1.98107,-0.61962 1.43212,-1.28107 -2.5248,-3.04221 -43.04648,-29.66016 -45.15295,-29.66016 -0.33792,0 -4.1777,3.48152 -8.53286,7.73671 -12.73115,12.43896 -26.12812,21.35337 -34.11569,22.70065 -6.05631,1.02153 -12.05399,-0.71073 -15.20448,-4.39136 -2.1718,-2.5373 -3.72152,-6.67185 -3.40387,-9.08123 0.36198,-2.74527 2.81021,-7.32978 5.5572,-10.40633 5.77701,-6.47003 20.38069,-13.65198 31.65933,-15.56978 5.27302,-0.89661 5.53845,-0.97555 5.18741,-1.54354 -0.42216,-0.68307 -21.36879,-10.92814 -25.42188,-12.43387 -1.70208,-0.63236 -4.22134,-1.60799 -5.59842,-2.16808 l -2.50375,-1.0184 -9.16084,8.63675 c -5.03843,4.7502 -10.44632,9.71321 -12.01746,11.02893 -4.09394,3.42834 -10.32458,7.3913 -14.14343,8.99576 -8.42634,3.54042 -16.58346,1.47536 -20.03622,-5.07233 -1.44279,-2.73603 -1.36975,-7.28945 0.16849,-10.50678 3.73981,-7.82212 17.66027,-16.17192 32.49767,-19.49289 0.75229,-0.16835 1.25892,-0.55467 1.15169,-0.87818 -0.23804,-0.71844 -7.68591,-2.83106 -15.69233,-4.45115 l -6.05596,-1.22545 -3.70419,2.11629 c -6.22366,3.55574 -17.33533,7.68029 -24.89094,9.2392 -5.05143,1.04229 -15.74732,1.17141 -19.52031,0.23567 -6.65562,-1.65066 -12.67821,-6.16489 -15.3544,-11.50899 -2.70737,-5.40641 -1.40889,-11.33911 3.48343,-15.91529 7.68848,-7.19167 19.98161,-7.87459 37.10455,-2.06135 5.31295,1.80377 15.49613,6.82698 20.24852,9.98831 3.02655,2.01331 3.93753,2.34468 9.5221,3.46358 3.39644,0.68044 8.82413,1.99068 12.06161,2.91157 3.23742,0.92088 6.10591,1.6011 6.37442,1.51158 0.26853,-0.0895 -1.41988,-2.2953 -3.75199,-4.90174 -14.09561,-15.75394 -19.69719,-25.70321 -19.69719,-34.98535 0,-7.64973 4.28095,-13.80915 10.55302,-15.18372 10.61367,-2.32606 24.42039,17.00538 28.1961,39.4787 1.06757,6.35439 2.19594,16.40254 2.19594,19.55464 v 2.65876 l 4.269,1.74598 c 8.6355,3.53184 18.58758,8.08398 27.98042,12.79837 5.2989,2.65958 9.73402,4.73592 9.85585,4.61413 0.12184,-0.12184 -1.55339,-4.0706 -3.72271,-8.77505 -4.90536,-10.63781 -8.60532,-19.99866 -9.607,-24.30551 -1.56863,-6.74431 -0.78709,-13.32328 2.12757,-17.91022 2.64201,-4.15792 7.41096,-5.33728 13.05014,-3.22742 13.39648,5.01229 19.62879,32.6404 13.18013,58.42793 -1.11849,4.47267 -1.63898,3.79898 6.90278,8.93449 7.91549,4.75901 21.80286,13.9267 30.94157,20.42602 3.92496,2.79139 7.21126,4.85036 7.30287,4.57551 0.0917,-0.27491 -0.37812,-2.58516 -1.04388,-5.13399 -5.44455,-20.84403 -5.98026,-38.19102 -1.46423,-47.41399 1.92355,-3.92834 5.82047,-8.03542 8.86846,-9.34661 7.45794,-3.20834 15.29411,0.45325 19.59405,9.15564 3.01973,6.11148 3.79851,9.94732 3.84274,18.92743 0.0437,8.87793 -0.56205,12.64569 -3.36815,20.94863 -1.85503,5.48882 -6.52608,15.04945 -9.89027,20.24314 -1.18423,1.82824 -2.15773,3.56946 -2.16334,3.8694 -0.006,0.2999 2.50722,2.68214 5.58405,5.29387 3.07683,2.61171 7.13093,6.13042 9.00911,7.81935 5.38067,4.83847 20.44437,20.59656 25.0962,26.25302 2.61601,3.18096 4.39913,4.97383 4.67374,4.69921 0.25847,-0.25843 0.38102,-5.20136 0.29328,-11.82864 l -0.15073,-11.38468 -1.66637,-3.31907 c -1.31349,-2.61626 -1.868,-3.29118 -2.61859,-3.1871 -3.8632,0.53576 -8.3583,0.11417 -11.69199,-1.09647 -3.68968,-1.33996 -4.81577,-1.46341 -8.78052,-0.96269 -7.77512,0.98187 -11.01973,-9.91551 -4.05432,-13.61695 4.47285,-2.37686 9.98459,0.47716 10.74759,5.5652 0.38255,2.55093 1.41407,3.25537 6.24793,4.26676 2.9927,0.62613 4.43663,0.54709 4.43663,-0.24295 0,-1.28073 -9.03828,-11.67363 -12.04836,-13.85415 -1.7535,-1.27024 -1.88167,-1.29181 -3.75138,-0.63216 -2.63491,0.92964 -4.00601,0.86027 -6.45828,-0.32685 -7.34369,-3.55503 -5.59836,-14.138 2.54642,-15.44039 2.03872,-0.32602 4.8566,0.56295 6.54953,2.06621 1.31072,1.16389 2.66457,4.34094 2.68048,6.29026 0.0124,1.48958 0.51333,2.13247 4.72443,6.06024 3.21838,3.00185 4.79153,4.18363 4.9655,3.73024 0.33341,-0.86885 -0.46388,-6.47546 -0.99658,-7.00813 -0.22706,-0.22705 -1.3512,-0.89241 -2.49814,-1.47859 -2.48865,-1.27187 -3.73132,-2.84677 -4.11583,-5.2162 -0.43635,-2.68876 0.19554,-4.94608 1.88643,-6.7389 4.1424,-4.39226 11.3115,-2.54326 13.08456,3.37464 0.64784,2.16242 0.20444,4.03275 -1.59048,6.70865 -0.91969,1.37114 -0.99511,1.8322 -0.58399,3.57079 0.25967,1.098 0.50982,5.10295 0.5559,8.89989 0.0848,6.97761 0.55757,9.046 2.06787,9.046 0.92912,0 0.86532,-43.22165 -0.067,-45.36431 -1.91561,-4.40278 -37.87803,-43.83449 -40.46013,-44.3634 -0.55472,-0.11359 -3.25818,-0.66212 -6.00769,-1.21897 -7.46103,-1.51097 -15.32825,-3.52356 -25.94774,-6.63806 -5.23716,-1.53591 -11.66457,-3.36544 -14.28316,-4.06555 -11.15036,-2.98123 -26.71824,-9.55334 -33.81478,-14.27521 -13.17117,-8.76381 -16.2569,-17.90341 -7.50028,-22.21531 1.91538,-0.94321 2.95086,-1.11118 6.55936,-1.0641 7.13152,0.0931 15.04377,2.34464 28.36635,8.07218 3.42109,1.47079 6.32654,2.56778 6.45654,2.43775 0.97726,-0.97724 -56.1616,-38.54679 -58.60026,-38.53042 -0.53905,0.004 -2.25136,0.24464 -3.80513,0.53562 -9.54914,1.78824 -22.64361,-0.57126 -27.83602,-5.01579 -1.07609,-0.92107 -2.11671,-1.60357 -2.31253,-1.51668 -0.19583,0.0869 -2.39086,1.36347 -4.8779,2.83685 -15.19971,9.00469 -22.03291,12.79902 -31.1838,17.31564 -3.40415,1.6802 -7.88949,3.60394 -9.9674,4.27498 -8.75287,2.82661 -19.70419,4.08877 -23.63849,2.72429 -2.04254,-0.70834 -3.90982,-2.57612 -4.8537,-4.85488 l -0.69021,-1.66637 -0.536,1.19026 c -0.29481,0.65465 -5.8032,20.25827 -12.2409,43.56363 -6.43767,23.30536 -16.0916,58.22767 -21.45317,77.60516 -10.40656,37.61104 -13.98545,50.8231 -13.98545,51.63034 0,0.72734 1.6867,0.62413 6.73214,-0.41189 30.82848,-6.33015 72.84572,-8.25394 109.1995,-4.99976 65.60293,5.87237 123.1212,25.47463 156.33676,53.2796 4.33933,3.63245 13.1942,12.55514 15.53021,15.64906 1.33166,1.76378 1.46826,1.82357 3.55265,1.5561 1.19222,-0.15301 4.22553,-0.41873 6.7407,-0.59046 z M 329.01961,495.26215 c -1.00254,-2.62515 -4.88651,-6.97337 -7.70329,-8.62412 -1.14351,-0.67012 -2.07911,-1.46627 -2.07911,-1.76911 0,-0.30291 0.97735,-1.0692 2.17185,-1.70289 3.26528,-1.73222 6.46671,-5.50654 7.8048,-9.20149 0.66759,-1.84349 1.19573,-1.63602 2.14185,0.84128 1.00253,2.62514 4.88646,6.97336 7.70329,8.62411 1.14347,0.67013 2.07906,1.40794 2.07906,1.63962 0,0.23166 -0.89304,0.87679 -1.9846,1.43364 -2.84169,1.44974 -6.23469,5.13651 -7.57455,8.23039 -0.63427,1.46459 -1.28477,2.66652 -1.44559,2.67099 -0.16084,0.005 -0.66198,-0.95964 -1.11371,-2.14242 z m 203.03668,184.02279 c 1.08004,-1.08005 1.15951,-1.57967 0.45934,-2.88791 -0.55856,-1.04377 -2.79154,-1.25492 -3.69686,-0.34961 -0.90902,0.90903 -0.66436,2.64224 0.48682,3.44858 1.36175,0.95377 1.60448,0.93516 2.7507,-0.21106 z M 530.747,654.15929 c 1.69436,-1.48783 0.78919,-4.63103 -1.57229,-5.45974 -1.28896,-0.45235 -3.72462,0.90289 -4.0658,2.26227 -0.86865,3.46099 2.90248,5.59966 5.63809,3.19747 z m -25.93465,-6.08624 c 1.16574,-0.81652 1.43379,-2.97771 0.48682,-3.92469 -0.74849,-0.74848 -2.99537,-0.73358 -3.58141,0.0238 -1.08461,1.40175 -1.0609,2.3283 0.089,3.47819 1.36842,1.36842 1.60738,1.40203 3.0056,0.42269 z m 72.85625,-2.17237 c 0.16402,-1.40866 -2.84063,-8.68136 -5.2193,-12.63322 -3.15221,-5.23698 -19.39929,-19.5625 -21.68684,-19.12196 -2.04787,0.39435 -1.08214,1.78848 3.76229,5.43088 2.69917,2.02944 7.08358,5.85071 9.74316,8.49167 4.49548,4.46402 5.03129,5.20341 7.61768,10.51246 1.53016,3.14086 3.03812,6.42499 3.35097,7.29802 0.69273,1.93285 2.20798,1.94665 2.43204,0.0219 z m -178.7439,-8.04024 c 2.58549,-2.88153 5.70284,-5.97464 6.92745,-6.87358 2.8118,-2.06406 12.51166,-7.1759 15.84165,-8.3486 2.07063,-0.7292 2.52466,-1.08833 2.52466,-1.99683 0,-2.07011 -1.96378,-1.59619 -10.00011,2.41328 -9.26871,4.62436 -13.04468,7.43558 -18.18997,13.54239 -3.76138,4.46425 -4.34946,5.46659 -3.62962,6.18641 0.88319,0.88322 2.22324,-0.12773 6.52594,-4.92307 z M 648.99921,624.7886 c 0.70727,-1.84306 -2.82153,-9.44446 -6.8868,-14.83478 -6.02641,-7.99081 -19.98943,-19.73847 -21.99064,-18.50165 -1.34171,0.82924 -0.26033,2.21809 3.94186,5.06267 5.28068,3.57465 13.39608,11.59107 16.92388,16.71749 2.28621,3.32226 4.85794,8.28718 4.85794,9.37865 0,0.23734 0.20896,0.98111 0.4643,1.6528 0.51309,1.34947 2.24345,1.68713 2.68946,0.52482 z M 460.1292,622.21805 c 0.61941,-1.15736 -0.39891,-2.61587 -1.65717,-2.37357 -1.09992,0.21186 -1.46433,1.61066 -0.66917,2.56873 0.7869,0.94817 1.75806,0.8667 2.32634,-0.19516 z m 242.52361,-11.11801 c -0.13988,-2.07082 -3.81742,-8.99297 -7.10454,-13.37285 -5.08019,-6.76892 -14.13713,-14.40741 -15.8224,-13.34442 -1.42228,0.89718 -1.05001,1.53268 2.3958,4.08989 7.1871,5.33372 12.99635,12.36669 16.6436,20.14973 1.61613,3.44877 2.06149,4.04214 2.93971,3.91668 0.7989,-0.11417 1.01515,-0.44245 0.94783,-1.43903 z M 459.6883,604.0603 c 0.52372,-0.52371 0.95221,-1.27358 0.95221,-1.66637 0,-0.39278 -0.42849,-1.14265 -0.95221,-1.66637 -0.52372,-0.52371 -1.27358,-0.95221 -1.66637,-0.95221 -0.39279,0 -1.14265,0.4285 -1.66637,0.95221 -0.52372,0.52372 -0.95221,1.27359 -0.95221,1.66637 0,0.39279 0.42849,1.14266 0.95221,1.66637 0.52372,0.52372 1.27358,0.95222 1.66637,0.95222 0.39279,0 1.14265,-0.4285 1.66637,-0.95222 z m -127.63233,-5.96065 c 3.55984,-6.30768 14.67014,-14.48764 24.30137,-17.89194 3.75428,-1.32695 4.9492,-2.35163 3.93049,-3.3703 -1.941,-1.94099 -17.65475,6.18618 -25.02082,12.94073 -2.58268,2.36834 -5.94279,6.75888 -6.6489,8.68792 -0.43193,1.17993 0.0937,2.2615 1.09894,2.2615 0.54119,0 1.40104,-0.96611 2.33892,-2.62791 z m 104.62027,1.87943 c 0.15797,-0.41164 -0.0659,-2.92905 -0.49742,-5.59424 -1.2475,-7.70428 -1.41632,-11.64639 -0.78899,-18.42385 0.64974,-7.01945 1.28599,-9.9007 3.29694,-14.93013 1.43004,-3.57665 1.44248,-4.58109 0.0567,-4.58109 -1.18705,0 -2.17935,1.71203 -3.79098,6.5405 -1.826,5.47078 -2.59702,11.22923 -2.59853,19.40724 -9.5e-4,6.43299 1.12483,15.49894 2.17316,17.49687 0.54368,1.03615 1.76552,1.08428 2.1491,0.0847 z m 40.18316,-1.1727 c 1.21554,-0.65055 1.1966,-2.65881 -0.0314,-3.31597 -2.12267,-1.13599 -4.10074,2.08472 -2.02345,3.29459 1.04534,0.60885 0.95873,0.60795 2.05473,0.0214 z m 69.77385,-3.20423 c 1.85677,-1.22117 7.0845,-11.95667 8.95406,-18.38776 1.04348,-3.5895 2.15738,-11.94348 2.16937,-16.26966 0.01,-3.64387 -0.71662,-5.34247 -2.06434,-4.82532 -0.62794,0.24095 -0.783,0.99072 -0.783,3.78527 0,5.45893 -1.25025,14.17532 -2.62149,18.27658 -1.40903,4.21425 -4.92044,11.86417 -6.39875,13.94023 -1.61519,2.26831 -1.09709,4.69163 0.74415,3.48066 z m 217.67344,-3.78318 c 0.11916,-0.83371 -0.32876,-1.28525 -2.23132,-2.24937 -7.48771,-3.79431 -20.77538,-7.28716 -31.00708,-8.15073 -4.06855,-0.34336 -6.35367,0.24677 -6.09952,1.57515 0.13374,0.69898 0.95659,0.89165 5.15279,1.2065 9.41441,0.70645 24.06207,4.41016 30.26487,7.65259 2.72537,1.4246 3.71301,1.41602 3.92026,-0.0343 z M 622.71406,572.14249 c 4.27758,-4.4773 8.11555,-10.16604 10.44385,-15.48009 3.48843,-7.96191 5.45369,-15.69333 4.36694,-17.17955 -0.89537,-1.22449 -2.0634,-0.45182 -2.39991,1.58748 -0.16431,0.99573 -0.94378,4.16716 -1.73221,7.0476 -2.24699,8.20886 -6.41029,15.35016 -13.25878,22.7426 -2.16375,2.33563 -3.32645,3.95838 -3.15548,4.40397 0.56729,1.47831 2.17823,0.60141 5.73559,-3.12201 z m -339.16141,-0.10027 c 6.28897,-7.89911 13.1815,-12.80509 20.9253,-14.89434 3.77213,-1.01767 4.72668,-1.73468 3.79851,-2.85305 -0.89084,-1.07344 -2.88677,-0.63708 -9.17403,2.00559 -6.16822,2.59263 -9.29271,4.81947 -14.5003,10.33443 -3.74823,3.96948 -4.86732,5.82235 -4.18421,6.92767 0.58908,0.95312 1.52801,0.49777 3.13473,-1.5203 z m 200.99447,-26.42384 c 0.0752,-12.50372 -0.0281,-23.40901 -0.22967,-24.23395 -0.24853,-1.01748 -1.80802,-2.87816 -4.84857,-5.78497 -14.10275,-13.4823 -37.07483,-26.60548 -64.70072,-36.96128 -6.84834,-2.56719 -8.40365,-2.99903 -8.40365,-2.33331 0,0.64304 5.31078,10.23308 10.18963,18.40005 2.76344,4.62588 5.54166,9.43069 6.17381,10.67737 0.84412,1.66465 2.64889,3.53113 6.79516,7.02741 10.55443,8.89993 27.63725,26.43927 49.63293,50.95926 2.4587,2.74089 4.64679,4.98344 4.86241,4.98344 0.21559,0 0.4535,-10.23031 0.52867,-22.73402 z m 207.38865,17.44878 c 3.48434,-2.90691 7.73776,-6.92404 9.45202,-8.92698 3.83808,-4.48433 8.80962,-11.92938 8.62256,-12.91244 -0.0762,-0.40012 -0.61965,-0.79615 -1.20774,-0.88004 -0.79395,-0.11321 -1.2831,0.24043 -1.89956,1.37332 -1.12884,2.07454 -5.98117,8.68812 -8.64813,11.78719 -1.19921,1.39351 -4.7519,4.62854 -7.89496,7.18904 -6.49155,5.28834 -7.11701,5.93255 -6.73236,6.93495 0.55932,1.45745 2.11166,0.60452 8.30817,-4.56504 z m -194.85489,0.93664 c 8.77077,-10.85539 22.85952,-25.6796 33.07098,-34.7972 9.98965,-8.91955 10.22461,-9.16579 12.02795,-12.60403 0.93478,-1.78215 2.58687,-5.89828 3.67134,-9.14689 1.7473,-5.2343 1.97037,-6.40385 1.9598,-10.27563 -0.0134,-4.85913 -0.26677,-5.9567 -1.37576,-5.9567 -1.23954,0 -14.94462,6.0014 -24.37711,10.67461 -8.29505,4.1097 -18.092,9.55467 -18.092,10.05525 0,0.69355 -2.08692,15.11144 -2.89158,19.97714 -1.47003,8.88888 -3.69349,19.84488 -5.4784,26.99474 -1.49721,5.99736 -1.91932,8.4751 -1.4438,8.4751 0.10141,0 1.41928,-1.52839 2.92858,-3.39639 z m -121.52484,-0.0863 c 0.13214,-0.34436 -0.50968,-1.79053 -1.42629,-3.21371 -2.54421,-3.95038 -3.71389,-6.85196 -5.37145,-13.32457 -1.27738,-4.98791 -1.55957,-7.11424 -1.78163,-13.42307 -0.27628,-7.85074 -0.68673,-9.29224 -2.2714,-7.9771 -0.55685,0.46216 -0.71354,1.75964 -0.71135,5.89057 0.006,11.94539 3.37377,24.41206 8.40773,31.12662 1.18941,1.58652 2.72681,2.03549 3.15439,0.92126 z M 493.2219,543.51706 c 2.86878,-14.49793 4.62775,-27.06011 3.78894,-27.06011 -0.81861,0 -6.33543,4.55185 -6.56825,5.41936 -0.14884,0.55443 -0.27348,7.66758 -0.27705,15.80698 -0.009,18.98466 0.32733,19.6254 3.05636,5.83377 z M 264.00034,537.8979 c 0.4094,-0.76495 0.30375,-1.06176 -0.57838,-1.62461 -3.61535,-2.30697 -15.26245,-3.99472 -23.38329,-3.38844 -6.54174,0.48838 -11.26146,2.18508 -11.26146,4.04841 0,1.30363 1.07923,1.42889 3.37801,0.39203 5.15646,-2.32577 19.97262,-2.18461 26.85467,0.25585 4.1187,1.46056 4.3698,1.47651 4.99045,0.31676 z m 50.93831,-1.85258 c -0.008,-0.4302 -1.6417,-2.71046 -3.63159,-5.06718 -7.08535,-8.3915 -9.95879,-13.79882 -12.51981,-23.56026 -0.7491,-2.85516 -1.50173,-5.41736 -1.67256,-5.69375 -0.45325,-0.73338 -2.01406,-0.61436 -2.31758,0.17664 -0.30799,0.80253 2.0074,9.85571 3.47924,13.60395 2.4896,6.34025 7.21199,13.49421 12.97287,19.65257 2.13809,2.2856 3.72042,2.66648 3.68943,0.88803 z m 103.09043,-14.85543 c -1.04743,-0.50667 -5.76086,-2.54426 -10.47431,-4.528 -9.90245,-4.16763 -21.95378,-9.88804 -23.19186,-11.00851 -1.83276,-1.6586 -0.55133,-4.43182 2.04783,-4.43182 0.77163,0 3.54134,1.07309 6.15492,2.38467 8.1153,4.07241 26.32093,11.89849 27.6793,11.89849 1.52834,0 -1.84156,-2.08958 -15.63783,-9.69655 -23.65575,-13.04333 -44.97467,-19.30864 -47.79159,-14.04516 -0.39812,0.74392 -0.25029,1.37033 0.7103,3.00947 3.19124,5.44545 13.07604,11.58306 27.67846,17.18602 5.37747,2.06334 32.48577,10.15509 34.01505,10.15342 0.39278,-4.3e-4 -0.14284,-0.41535 -1.19027,-0.92203 z m 196.41261,-1.57257 c 9.41317,-2.18671 15.58964,-5.64128 16.69758,-9.33919 0.47782,-1.59486 0.42816,-2.05625 -0.36812,-3.41967 -1.38042,-2.36363 -4.57785,-4.54914 -8.40555,-5.74535 -2.92419,-0.91389 -4.45563,-1.06586 -10.56168,-1.0482 -7.85516,0.0228 -12.46982,0.69254 -22.94223,3.33012 -8.50014,2.1408 -9.31214,2.7009 -3.24356,2.23722 10.72627,-0.81958 25.72674,0.0309 28.20924,1.59985 1.50578,0.95145 1.4516,3.24037 -0.10074,4.25753 -1.04244,0.68302 -1.6609,0.70034 -5.59424,0.15668 -6.79793,-0.93954 -19.83326,-0.74358 -27.98947,0.42079 -8.11131,1.15793 -13.80705,2.3899 -13.80705,2.98637 0,0.56714 3.44676,1.52372 12.61679,3.50156 9.85823,2.12629 9.63775,2.10682 21.90084,1.93361 7.21028,-0.10189 11.44466,-0.37337 13.58819,-0.87132 z M 555.01918,508.8451 c 1.90351,-1.30605 5.4963,-3.86526 7.98395,-5.68713 15.56455,-11.39876 36.12982,-23.15833 55.35981,-31.65558 12.11321,-5.35256 11.94833,-5.61144 -1.55619,-2.44329 -22.55754,5.29195 -58.44589,16.33239 -59.47827,18.29742 -0.22311,0.42468 -1.18855,3.98585 -2.14538,7.91372 -0.95687,3.92787 -2.26693,8.81305 -2.91119,10.85597 -1.13803,3.60854 -1.41284,5.09356 -0.94255,5.09356 0.12588,0 1.7863,-1.06862 3.68982,-2.37467 z m 212.36538,-5.65375 c 3.447,-2.13033 4.07494,-5.83486 2.04383,-12.05694 -1.65543,-5.07128 -1.90667,-8.49252 -1.20336,-16.38519 0.58137,-6.52392 0.56552,-7.05296 -0.25676,-8.57982 -1.11071,-2.06248 -5.3509,-4.22214 -10.03493,-5.11109 l -3.36763,-0.63912 -5.57719,2.08403 c -7.42396,2.77411 -15.2489,4.74725 -22.34034,5.63334 -9.04804,1.13056 -29.07485,1.76706 -44.25661,1.40659 -14.90347,-0.35387 -14.08738,-0.48837 -14.30562,2.35773 -0.0942,1.22864 0.12269,1.40159 2.99308,2.386 1.70208,0.58375 5.8799,2.30052 9.28406,3.81506 14.32566,6.37366 20.28727,8.83899 25.23357,10.43494 15.78846,5.09418 30.80273,10.0393 36.89816,12.15282 9.17598,3.18162 12.52604,3.86226 18.33177,3.72434 4.03552,-0.0959 5.03686,-0.28258 6.55797,-1.22269 z m -356.73511,-7.00008 c 0,-0.14807 -1.09998,-2.12986 -2.44439,-4.40398 -1.34442,-2.27411 -4.15001,-7.40539 -6.23464,-11.40282 -2.08464,-3.99743 -4.14481,-7.45707 -4.57816,-7.68806 -1.99694,-1.06444 -31.8659,-9.08716 -33.83193,-9.08716 -1.41422,0 0.12141,1.23978 7.38834,5.965 8.19416,5.32814 36.55184,24.99517 37.77936,26.20124 0.68642,0.67449 1.92142,0.94168 1.92142,0.41578 z m 73.7963,-0.43554 c 0,-0.12574 -2.55954,-1.94342 -5.68783,-4.03928 -10.7088,-7.17443 -18.69534,-14.3311 -25.85412,-23.16763 -2.8657,-3.53732 -3.36725,-5.19413 -1.98945,-6.57193 0.89911,-0.89911 2.60647,-0.97161 3.60376,-0.15304 0.39879,0.32733 2.34734,2.53548 4.33013,4.90701 4.26039,5.0957 8.85495,9.64144 13.45683,13.31392 7.20315,5.7483 22.23731,15.27703 23.18224,14.69303 0.92268,-0.57023 -8.1853,-16.27466 -13.72341,-23.66254 -7.89834,-10.53645 -19.59173,-21.30637 -28.60743,-26.34825 -4.02842,-2.25282 -10.31078,-4.43245 -12.79905,-4.44056 -5.81568,-0.019 -8.64773,6.8212 -6.6275,16.00715 2.78597,12.66779 14.74172,23.84591 36.62497,34.24276 8.78882,4.17569 14.09086,6.13957 14.09086,5.21936 z m 175.18218,-22.43205 c 1.48869,-0.59566 2.21714,-1.24173 2.69824,-2.39325 1.64404,-3.93466 0.13635,-9.54149 -3.69205,-13.73037 -4.03566,-4.41566 -12.09522,-7.69586 -15.85783,-6.45408 -3.43901,1.13497 -6.86201,6.49897 -7.91797,12.40786 -0.89626,5.0151 -0.81676,5.13042 5.67979,8.23847 6.23589,2.98333 9.31562,3.65504 14.15466,3.08716 1.59276,-0.18692 3.8136,-0.70702 4.93516,-1.15579 z m -415.75404,-1.12506 c 5.37266,-0.6178 12.9124,-2.58689 17.75458,-4.63681 4.01724,-1.70069 16.2621,-8.19798 23.56722,-12.50509 2.09486,-1.23514 4.71939,-2.7479 5.83229,-3.36168 3.38939,-1.86932 2.66905,-2.26087 -2.58935,-1.40745 -7.57883,1.23003 -19.68866,1.89046 -34.70555,1.89274 -8.66312,9.6e-4 -15.86664,0.11789 -16.00786,0.25907 -0.14116,0.14117 0.24654,1.48022 0.86157,2.97566 1.88447,4.58196 1.62852,6.05067 -2.23475,12.82471 -1.29186,2.26525 -0.98834,3.4325 1.04016,4.00011 1.64718,0.46092 2.14194,0.45777 6.48169,-0.0413 z m -10.3252,-10.51897 c 0.59156,-1.42812 0.30404,-3.78367 -0.46178,-3.78367 -0.45768,0 -1.92918,4.5609 -1.92918,5.97936 0,0.79024 0.0477,0.79083 0.90874,0.0114 0.49978,-0.45229 1.1668,-1.44546 1.48222,-2.20701 z m 489.18777,1.24286 c 3.666,-0.40198 7.84383,-0.96376 9.28404,-1.2484 8.37769,-1.65571 25.01996,-7.81325 28.12635,-10.40659 l 1.6081,-1.34246 -0.70245,-3.0371 c -0.66897,-2.89239 -0.73958,-5.54396 -0.3915,-14.70166 0.13183,-3.46775 2.9e-4,-4.33565 -0.91912,-6.06461 -1.27573,-2.39898 -4.65745,-5.17639 -9.59929,-7.88381 -7.65239,-4.19246 -10.07423,-7.96006 -12.4439,-19.35834 -1.04187,-5.01142 -1.94205,-6.38436 -4.73445,-7.22098 -3.80598,-1.1403 -8.88722,0.99882 -16.77666,7.06272 -2.159,1.65941 -4.67531,3.51906 -5.59181,4.13255 -7.2189,4.83218 -31.89673,28.47307 -39.56478,37.90236 -4.26638,5.24625 -8.52185,11.06708 -8.52185,11.65653 0,0.19092 0.65098,1.16908 1.44664,2.17368 0.79567,1.00461 2.19176,3.43915 3.10235,5.41011 l 1.65571,3.58355 5.82462,0.18457 c 12.541,0.39739 41.51004,-0.10876 48.198,-0.84212 z M 532.569,456.98039 c 0.839,-0.83897 1.39171,-1.89349 1.39171,-2.6552 0,-0.76171 -0.55271,-1.81622 -1.39171,-2.6552 -0.83894,-0.83898 -1.89347,-1.39169 -2.65518,-1.39169 -1.51264,0 -4.0469,2.34822 -4.0469,3.74982 0,3.85256 4.02766,5.62674 6.70208,2.95227 z m 51.34877,-2.87505 c 0.47058,-0.25186 1.1309,-1.12249 1.46735,-1.93475 0.5412,-1.30658 0.50163,-1.62427 -0.34317,-2.7558 -0.74239,-0.99434 -1.35586,-1.27896 -2.75655,-1.27896 -1.40071,0 -2.01417,0.28462 -2.75656,1.27896 -0.84333,1.12958 -0.88375,1.45065 -0.34603,2.74889 0.91826,2.21689 2.78802,2.98362 4.73496,1.94166 z m -248.73103,-3.04261 2.38053,-0.55248 0.37346,-3.09163 c 0.53185,-4.40336 -0.4335,-12.73175 -2.02664,-17.48399 -2.08615,-6.22288 -4.94421,-9.16952 -8.89741,-9.17308 -1.58614,-0.002 -2.43966,0.36489 -4.28495,1.83894 -3.03322,2.42305 -3.90454,3.42159 -6.73955,7.7235 -2.80631,4.25836 -6.75318,12.6429 -6.75318,14.3461 0,2.6737 3.47005,4.93642 9.64594,6.28985 3.63259,0.79608 13.05848,0.85551 16.3018,0.10279 z m 326.71645,-7.80699 c 8.82105,-11.86599 23.74752,-26.96915 40.67392,-41.15542 3.02193,-2.5327 6.43728,-5.24783 7.58969,-6.03361 1.15246,-0.78578 2.82016,-2.04147 3.70605,-2.7904 l 1.61076,-1.3617 -3.13078,-2.54015 c -3.34149,-2.7111 -4.61369,-4.89681 -4.61369,-7.92666 0,-4.09754 -2.90424,-6.12701 -6.72628,-4.70032 -5.52039,2.06062 -6.15879,2.21532 -7.84031,1.89988 -3.13786,-0.58868 -5.21959,-3.15231 -7.35892,-9.06251 -1.04139,-2.87692 -2.29363,-5.631 -2.78283,-6.12018 -1.95442,-1.95441 -4.98497,0.61469 -9.65323,8.18336 -1.88214,3.05146 -4.64303,7.48146 -6.13537,9.84444 -3.11012,4.92448 -7.87841,14.2573 -10.03445,19.64 -5.35966,13.38063 -13.81733,42.41222 -12.62755,43.34505 0.30308,0.23764 1.56006,0.5635 2.79326,0.72414 1.23316,0.16063 3.80413,0.91771 5.71327,1.68238 1.90909,0.76468 3.81774,1.41272 4.24138,1.44008 0.45644,0.0295 2.32063,-2.03575 4.57508,-5.06838 z m -384.28263,2.4947 c 9.48707,-0.90049 22.68937,-2.92696 24.79166,-3.80536 1.30977,-0.54724 1.88719,-1.31299 3.25718,-4.31921 1.89647,-4.16152 1.99398,-4.75811 0.832,-5.0914 -0.45825,-0.13143 -4.90389,-1.32422 -9.87918,-2.65062 -4.97531,-1.32641 -11.40273,-3.1922 -14.28316,-4.14622 -7.25318,-2.40229 -24.07784,-9.12133 -30.94404,-12.35773 -5.69388,-2.68383 -5.72012,-2.69072 -9.046,-2.37571 -4.42369,0.41897 -9.73912,1.59088 -11.08778,2.44455 -0.59775,0.37834 -1.64656,1.82921 -2.33068,3.22415 l -1.24392,2.53625 1.02139,4.00444 c 0.5618,2.20245 1.01672,4.64026 1.01097,5.41735 -0.0129,1.7645 -1.27777,4.58694 -3.50837,7.82969 -2.94077,4.27508 -1.98451,6.84672 3.16718,8.51771 4.28248,1.38906 3.74186,1.35555 23.00918,1.42629 12.54228,0.046 19.8532,-0.14349 25.23357,-0.65418 z m 89.10816,-6.70509 c 0.58918,-0.65939 1.07123,-1.69367 1.07123,-2.2984 0,-1.4623 -1.598,-3.42831 -3.09125,-3.80309 -1.38294,-0.3471 -3.78533,0.72178 -4.23067,1.88234 -1.70137,4.43369 3.13944,7.70116 6.25069,4.21915 z m 186.39523,0.22835 c 2.4695,-2.97436 -0.92103,-7.25914 -4.6207,-5.83944 -0.86794,0.33304 -2.1638,2.58735 -2.1638,3.76412 0,0.42593 0.65131,1.42575 1.4474,2.22182 1.21131,1.21133 1.69665,1.39925 2.97566,1.15221 0.84051,-0.16236 1.90318,-0.74677 2.36144,-1.29871 z m 88.46874,-8.07506 c 5.78763,-21.82525 12.80237,-39.8277 19.7937,-50.79804 0.87936,-1.37984 1.59885,-2.78398 1.59885,-3.12031 0,-0.71332 -2.62514,-3.29994 -4.13464,-4.07392 -2.71009,-1.38963 -6.04687,0.0428 -9.5681,4.10744 -3.1013,3.57984 -6.52616,5.49357 -9.83143,5.49357 -2.47299,0 -4.75263,-0.85611 -8.60294,-3.23077 -2.64086,-1.62874 -3.71076,-1.51206 -5.45759,0.59519 -2.42252,2.9224 -3.59279,7.49614 -3.56322,13.92607 0.0429,9.35508 1.41503,14.38759 7.55531,27.71229 5.20331,11.29143 8.80776,18.08563 9.4765,17.86271 0.29343,-0.0978 1.52354,-3.91122 2.73356,-8.47423 z m -329.79562,-5.22744 0.85894,-1.45404 -3.33297,-6.99683 c -1.83316,-3.84825 -4.554,-9.78204 -6.04635,-13.18619 -2.89862,-6.61188 -10.49241,-20.20157 -13.70127,-24.51942 -2.74303,-3.6911 -16.45077,-20.56587 -22.23811,-27.37605 -9.90037,-11.65013 -11.24741,-12.65397 -17.43669,-12.99384 -7.02303,-0.38565 -10.90434,1.78821 -13.69555,7.67065 -2.13866,4.50713 -2.61972,7.19652 -2.3203,12.97175 0.49354,9.51953 -2.83811,16.05447 -10.94418,21.46665 -1.76997,1.18174 -3.43039,2.54527 -3.68982,3.03006 -0.78005,1.45751 -0.53833,3.36534 0.69245,5.46553 2.25373,3.84574 7.74123,7.37478 16.69706,10.73806 2.87644,1.0802 9.40765,3.89013 14.51388,6.24428 17.7244,8.17154 31.99061,13.43755 46.84933,17.2932 4.58609,1.19003 8.82951,2.36083 9.42984,2.60179 2.15442,0.86469 3.45695,0.57946 4.36374,-0.9556 z m 282.37658,-2.37184 c 2.09372,-0.79697 3.69238,-1.91367 6.07034,-4.24037 3.04384,-2.97819 3.22809,-3.2812 3.22809,-5.30837 0,-2.96973 -1.8502,-6.45824 -5.01049,-9.4471 -6.57834,-6.2215 -16.61907,-7.97197 -34.29262,-5.97846 -9.42388,1.06298 -25.88733,5.18962 -24.84856,6.2284 0.14783,0.14782 2.54393,-0.0692 5.32468,-0.48236 10.16874,-1.51069 21.52905,-0.69678 30.26067,2.16805 8.93936,2.93298 10.00459,3.66358 9.31981,6.39199 -0.51182,2.03912 -2.1888,1.9652 -9.74302,-0.42943 -8.63069,-2.73585 -13.01281,-3.35897 -21.39374,-3.0421 -9.43383,0.35667 -26.50773,3.51351 -26.50773,4.90108 0,0.24628 2.5085,0.69471 5.57442,0.99654 7.7071,0.75872 10.88758,1.33016 23.46799,4.21655 6.02274,1.38183 14.05701,3.06028 17.85395,3.7299 3.79695,0.66962 7.43915,1.31935 8.09379,1.44387 2.88463,0.54864 9.79983,-0.0813 12.60242,-1.14819 z m -171.83798,-1.62769 c 1.7887,-1.78869 1.63239,-4.54586 -0.35238,-6.21594 -2.67724,-2.25274 -6.30236,-0.84016 -6.87332,2.67831 -0.62914,3.87684 4.41631,6.34703 7.2257,3.53763 z m -103.07979,-4.01174 1.66389,-1.37153 0.12183,-24.93329 c 0.18911,-38.69467 -0.56299,-51.34831 -3.7318,-62.78366 -1.15827,-4.17983 -2.44818,-6.53299 -5.76769,-10.52176 -2.63776,-3.16965 -5.25101,-4.68615 -8.1044,-4.70316 -2.66338,-0.0159 -3.76324,0.57506 -9.06752,4.87168 -8.07812,6.54353 -11.411,8.06837 -20.12492,9.20734 -8.013,1.04738 -11.54323,2.41837 -12.87917,5.0018 -1.24478,2.40718 -0.8928,3.84377 1.50991,6.16221 2.2498,2.17093 2.73889,2.73315 13.05819,15.01122 7.7856,9.26342 17.47525,21.301 19.32654,24.00952 2.9888,4.37287 10.10353,17.24917 12.54228,22.69916 6.03663,13.49042 8.67235,18.722 9.43232,18.722 0.19615,0 1.10537,-0.6172 2.02054,-1.37153 z m 72.76486,-0.10251 c 2.40273,-2.23849 2.39818,-5.29391 -0.0109,-7.32105 -3.11375,-2.62003 -8.02228,-0.44307 -8.02228,3.55792 0,1.33716 1.22928,3.6456 2.26149,4.24681 1.48672,0.86594 4.60339,0.60475 5.77169,-0.48368 z m -63.73466,-5.33856 c 0.007,-3.63999 2.56525,-16.55457 5.01705,-25.32452 2.98175,-10.66546 4.41745,-17.26956 5.93893,-27.31933 0.89075,-5.88331 1.00692,-8.26182 0.82543,-16.90174 -0.16354,-7.78485 -0.39741,-10.63362 -1.03596,-12.61812 -1.13108,-3.51512 -2.58611,-5.61139 -4.54695,-6.55072 -1.41136,-0.67609 -2.04087,-0.71188 -4.28495,-0.24358 -7.36653,1.5373 -7.81079,1.89028 -6.87733,5.46485 2.81211,10.76871 3.65439,25.84861 3.43509,61.50138 -0.0773,12.56918 0.0348,23.12436 0.24944,23.45596 0.61607,0.95241 1.27614,0.19689 1.27925,-1.46418 z m 154.23826,-21.9131 c -0.38341,-0.34951 -2.51826,-1.77519 -4.74406,-3.16816 -9.76234,-6.10959 -23.99164,-17.93243 -37.18295,-30.89459 -7.1291,-7.00526 -8.05273,-8.08947 -8.05005,-9.44955 0.003,-1.76178 1.74083,-3.25479 3.23546,-2.78042 0.49419,0.15685 2.70071,2.14966 4.90339,4.42846 8.49939,8.79316 25.54479,23.75492 33.33363,29.25889 4.87433,3.44445 13.34828,8.89907 13.87776,8.93302 1.35143,0.0866 -0.76486,-2.83634 -15.32326,-21.1638 -21.21617,-26.70883 -36.61741,-39.79694 -50.1089,-42.58297 -4.81569,-0.99446 -8.69286,0.96242 -10.88696,5.49481 -0.89852,1.85611 -1.01383,2.75062 -0.8468,6.56959 0.18404,4.20785 0.31461,4.66491 2.70906,9.48311 3.45891,6.96013 7.49647,12.51468 13.39637,18.42964 12.18697,12.21809 25.76859,19.58376 48.80078,26.46602 5.77658,1.7261 8.06532,2.05046 6.88653,0.97595 z m 88.25473,-29.86999 c 1.95209,-0.83689 4.09784,-2.18351 5.01378,-3.14649 1.3628,-1.43278 1.56171,-1.92676 1.33603,-3.31753 -0.66554,-4.10116 -4.67901,-7.45188 -8.99914,-7.51304 -2.85378,-0.0404 -3.84217,0.92793 -4.61223,4.5186 -0.56422,2.63082 -0.70292,10.09817 -0.19696,10.60411 0.75305,0.75307 4.30085,0.20813 7.45852,-1.14565 z m 38.16822,-5.44195 c 6.28459,-0.3724 16.67559,-0.79132 23.09111,-0.93091 12.53013,-0.27264 20.24452,-1.14949 29.41792,-3.34374 14.21831,-3.40097 20.6246,-7.19499 23.92348,-14.1683 3.28337,-6.94031 1.18836,-11.71753 -7.95657,-18.14338 -4.82157,-3.38797 -6.46961,-5.14547 -8.10384,-8.6422 -1.27048,-2.71851 -1.33557,-3.19521 -1.3458,-9.85868 -0.0124,-8.19531 -0.27357,-8.82663 -4.53353,-10.96607 -5.30024,-2.66191 -10.5234,-2.64803 -15.47251,0.0412 -1.79526,0.97548 -3.01123,2.23954 -5.33714,5.54824 -5.14641,7.32087 -21.14608,24.90504 -29.16012,32.04791 -4.78948,4.26883 -16.79342,13.46458 -23.11681,17.70887 -2.08073,1.39659 -4.71316,3.29431 -5.84987,4.21718 l -2.06667,1.67792 0.32889,2.6448 c 0.18088,1.45464 0.41849,2.79133 0.528,2.97042 0.24949,0.40798 10.77608,0.0784 25.65346,-0.8032 z m -27.5316,-11.34725 c 0.74021,-0.61185 3.05979,-2.2606 5.15465,-3.6639 7.5248,-5.04066 20.56717,-15.21137 25.47164,-19.86325 5.3399,-5.06491 18.65361,-19.26802 21.75562,-23.20897 4.12193,-5.23669 11.72281,-17.19285 14.66429,-23.06693 2.22926,-4.45179 2.62734,-7.80903 1.44407,-12.18022 -1.63718,-6.04823 -6.53297,-7.74603 -15.6351,-5.42204 -6.28345,1.6043 -10.75865,0.43461 -17.47768,-4.56814 -5.26916,-3.92325 -6.83122,-4.42766 -9.73455,-3.14337 -6.17366,2.73089 -11.35669,10.79186 -18.7097,29.09843 -3.38182,8.41962 -6.61577,17.85128 -7.91754,23.09112 -2.4916,10.02909 -6.47784,34.65996 -6.47784,40.02634 0,1.06146 3.87383,3.9738 5.31967,3.99932 0.43816,0.008 1.40227,-0.48653 2.14247,-1.09839 z m -13.52948,-3.59005 c 0.19801,-0.1926 0.77653,-3.98033 1.28553,-8.41718 1.55977,-13.59549 5.25421,-31.74363 8.42678,-41.39437 1.66727,-5.07174 7.15948,-19.20335 9.15931,-23.56721 1.29572,-2.82735 1.27054,-4.87276 -0.0793,-6.44202 l -1.08204,-1.25796 -3.90173,0.59728 c -3.52404,0.53947 -4.19121,0.50981 -6.89272,-0.30642 -2.49409,-0.75357 -3.4223,-1.3601 -5.5871,-3.65082 -2.81621,-2.98005 -4.46939,-3.48571 -6.57482,-2.01101 -3.58489,2.51097 -6.64048,13.34306 -7.11187,25.21164 -0.34147,8.59747 1.22473,29.20565 2.98518,39.27868 1.57919,9.03619 4.38964,19.68877 5.75773,21.82378 0.56642,0.88397 0.97496,1.0486 1.98412,0.7995 0.69897,-0.17254 1.43284,-0.47129 1.6309,-0.66389 z m -11.24289,-4.3955 c -1.63462,-5.64228 -3.4631,-14.08911 -4.31738,-19.94441 -1.29258,-8.85959 -2.7245,-28.92905 -2.56615,-35.96648 0.13254,-5.89084 0.0438,-6.85341 -0.74573,-8.09378 -1.93656,-3.04203 -2.68971,-3.55038 -5.25715,-3.54849 -3.12663,0.002 -5.01191,1.16045 -7.13882,4.38549 -2.75131,4.17178 -3.79847,8.90112 -3.82503,17.27552 -0.0247,7.87993 0.54157,11.64026 2.6689,17.71564 3.29946,9.4226 8.11136,17.91789 14.2694,25.19236 3.90007,4.60711 7.67039,8.17568 7.90245,7.47956 0.0918,-0.27529 -0.35399,-2.29822 -0.99049,-4.49541 z m -76.74323,-33.80256 c 2.73023,-4.1257 5.02177,-12.35399 5.02177,-18.03185 0,-3.08499 -0.25728,-3.34179 -3.34821,-3.34179 -7.24099,0 -17.12432,5.35207 -17.12432,9.27326 0,0.94517 0.52777,2.24725 1.37443,3.39111 2.64976,3.57988 10.75441,10.66479 12.19982,10.66479 0.32032,0 1.16474,-0.87998 1.87651,-1.95552 z m -32.80055,-16.86578 c -0.50831,-0.38446 -1.10823,-0.69902 -1.33315,-0.69902 -0.66449,0 -20.03561,-7.47521 -27.2612,-10.51994 -10.43063,-4.39528 -23.39389,-11.68664 -32.79253,-18.4446 -7.7117,-5.54499 -16.97282,-15.30116 -21.88033,-23.04996 -1.87961,-2.96786 -2.52388,-3.22092 -5.27429,-2.07174 -1.76431,0.73718 -2.98214,2.91167 -5.28577,9.43796 -1.81611,5.14497 -3.38934,6.78911 -8.07118,8.43483 -4.15007,1.45879 -4.8409,2.0949 -4.35931,4.0138 0.70987,2.82829 11.95696,9.32451 25.2918,14.60833 19.46747,7.71379 47.39058,15.08777 67.36892,17.79087 3.01137,0.40744 6.01084,0.82142 6.66549,0.91995 0.65463,0.0985 2.68998,0.2015 4.52299,0.22883 3.02723,0.0452 3.24802,-0.0144 2.40856,-0.64931 z m 16.66106,-3.91273 c 0.90251,-0.72011 1.64094,-1.49316 1.64094,-1.71789 0,-0.22473 -1.03457,-1.72445 -2.2991,-3.33274 -8.9241,-11.35001 -20.00267,-29.69499 -29.99945,-49.67601 -3.58367,-7.16284 -6.05747,-13.42375 -7.73175,-19.5682 -1.01731,-3.73342 -1.34123,-4.26919 -5.90082,-9.76015 -6.23347,-7.50675 -9.48028,-10.35428 -14.77229,-12.95563 -8.02876,-3.94663 -11.37725,-3.98498 -14.61647,-0.16748 -6.94626,8.1864 -8.82166,9.54516 -15.41035,11.16518 -4.21549,1.03649 -5.26936,1.58023 -7.7741,4.011 -2.77298,2.69106 -3.91959,5.47578 -4.21691,10.24125 -0.45692,7.3241 2.57387,15.74925 8.55915,23.79306 3.44355,4.6279 12.69611,13.83497 17.31569,17.23054 11.86001,8.71754 25.63974,15.8873 44.31984,23.06012 24.79377,9.52035 27.67712,10.23703 30.88562,7.67695 z m 12.82942,-5.65355 c 3.93506,-0.80761 4.32132,-1.18271 8.17944,-7.94338 2.65158,-4.64643 8.62632,-18.14865 12.04889,-27.2291 2.32568,-6.1703 10.43832,-24.32462 16.80786,-37.61231 5.95636,-12.42573 10.68285,-23.63636 12.79951,-30.35875 1.95218,-6.19983 2.18651,-11.84943 0.58085,-14.00131 -1.11204,-1.49039 -3.66911,-2.44401 -6.70275,-2.49973 -3.35511,-0.0616 -8.80095,-1.40217 -11.96462,-2.94521 -2.19542,-1.07076 -4.64736,-3.04071 -9.08861,-7.30188 -9.53882,-9.15205 -11.91578,-9.49538 -22.13819,-3.19766 -2.59311,1.59755 -6.10548,3.36743 -7.80527,3.93308 -2.7685,0.9213 -3.71586,0.99653 -9.09228,0.72198 -18.95114,-0.96773 -17.71551,-0.97913 -20.42985,0.18854 -4.71791,2.02959 -8.94904,8.20322 -11.1462,16.2634 -0.99628,3.65476 -1.08022,4.93645 -1.07035,16.34448 0.0101,11.75534 0.0766,12.6715 1.31965,18.19213 2.63881,11.71977 6.84109,22.00449 15.13275,37.03609 10.79627,19.57209 13.95293,24.62523 22.70175,36.3406 3.72624,4.9898 4.12183,5.36978 5.28134,5.07339 0.68935,-0.17621 2.75308,-0.62817 4.58608,-1.00436 z m 22.18065,-9.24325 c 13.75073,-10.07717 25.95312,-20.71482 38.54382,-33.60126 20.85655,-21.34643 33.78243,-40.34458 33.78243,-49.65259 0,-3.7981 -0.99306,-4.64068 -7.85573,-6.6653 -4.82809,-1.42438 -8.03348,-3.45104 -10.37311,-6.55861 -3.95315,-5.25062 -4.241,-5.49322 -6.8113,-5.74019 -3.39872,-0.32658 -6.31149,1.17954 -10.46112,5.40918 -2.40415,2.45048 -3.53799,4.01809 -3.97315,5.49327 -1.27711,4.32924 -7.7858,19.64886 -12.88031,30.31674 -7.0676,14.79945 -13.23697,28.62603 -16.92255,37.92616 -4.87213,12.29431 -8.71844,21.11174 -11.30179,25.90872 -1.43203,2.65918 -2.12476,4.37269 -1.70213,4.21052 0.39194,-0.15041 4.87166,-3.3214 9.95494,-7.04664 z m 310.35362,224.14507 c -1.59087,-5.98245 -8.38798,-14.06091 -14.13262,-16.79682 -1.63314,-0.77782 -2.97218,-1.67034 -2.97566,-1.98338 -0.005,-0.31304 1.47983,-1.35007 3.29612,-2.3045 5.87443,-3.08693 11.61897,-9.713 13.39375,-15.44905 0.44687,-1.44425 1.08076,-2.62591 1.4087,-2.62591 0.32794,0 0.85285,0.85699 1.16645,1.90442 1.96575,6.56532 7.56033,13.0723 14.14048,16.44658 1.48659,0.76233 2.83706,1.60312 3.00104,1.86842 0.16391,0.2653 -0.51677,0.85412 -1.51269,1.30849 -7.17081,3.27155 -13.64608,10.36585 -15.65868,17.15565 -0.40745,1.37474 -0.93164,2.49954 -1.16483,2.49954 -0.2332,0 -0.66612,-0.91055 -0.96206,-2.02344 z m -638.88275,-1.41509 c -1.93579,-6.4687 -8.27852,-13.98411 -14.18313,-16.80543 -1.63318,-0.78035 -2.97222,-1.68376 -2.97565,-2.00756 -0.005,-0.32382 0.77023,-0.91319 1.71926,-1.30971 6.54683,-2.73545 13.60699,-10.67208 15.39267,-17.30356 0.30304,-1.12545 0.78877,-1.96701 1.07933,-1.87015 0.29061,0.0969 0.88651,1.27474 1.32425,2.61751 1.94488,5.96587 8.19662,13.05942 14.05639,15.94897 1.69507,0.83588 3.08192,1.68497 3.08192,1.88686 0,0.20188 -1.26664,1.00645 -2.81474,1.78793 -6.27202,3.16613 -12.14482,9.67485 -14.17675,15.71196 -0.57309,1.70269 -1.23368,3.15977 -1.46802,3.23785 -0.23429,0.0781 -0.7003,-0.77448 -1.03553,-1.89467 z m 301.66118,-56.98136 c -0.96506,-2.41196 -5.01463,-6.8502 -7.00099,-7.67299 -1.84977,-0.7662 -1.77287,-1.47973 0.27862,-2.5845 2.27563,-1.22552 5.3389,-4.63219 6.47527,-7.20121 0.51267,-1.1589 1.09328,-2.10709 1.29024,-2.10709 0.19701,0 0.61275,0.70392 0.92384,1.56428 0.93812,2.59425 3.30769,5.40055 6.15723,7.29195 2.38729,1.58461 2.59577,1.84691 1.82686,2.29854 -2.73303,1.60529 -5.66651,4.40606 -6.89857,6.58646 -0.77482,1.37128 -1.59543,2.80056 -1.82358,3.17618 -0.31042,0.51102 -0.6198,0.17076 -1.22892,-1.35162 z m 318.6955,-20.48219 c -1.1806,-2.52069 -4.75358,-6.2768 -6.90181,-7.25559 -1.64852,-0.75113 -1.51807,-1.44311 0.47444,-2.51614 2.27563,-1.22551 5.33889,-4.63218 6.47531,-7.20121 0.51263,-1.1589 1.02481,-2.10709 1.13818,-2.10709 0.11336,0 0.66982,0.91056 1.23668,2.02346 1.63751,3.2151 3.16662,4.95445 6.02149,6.84941 l 2.66191,1.76687 -1.14518,0.75048 c -3.34921,2.19492 -5.13022,3.90299 -6.51197,6.24517 -0.84329,1.4295 -1.70555,2.8918 -1.91614,3.24957 -0.27019,0.45909 -0.72125,-0.072 -1.53291,-1.80493 z M 375.69291,383.06802 c -0.11074,-0.3491 -0.55748,-1.76225 -0.99273,-3.14034 -1.75399,-5.55333 -7.43095,-11.85356 -13.60374,-15.09727 -1.81205,-0.95222 -3.2947,-1.92292 -3.2947,-2.15713 0,-0.2342 1.37223,-1.0807 3.04931,-1.88112 3.73743,-1.78371 9.43499,-6.99689 11.61848,-10.63071 0.86618,-1.44154 2.0239,-3.93604 2.57272,-5.54335 0.54881,-1.60731 1.2061,-2.85296 1.46061,-2.76812 0.25453,0.0849 0.838,1.36698 1.29661,2.84921 0.45861,1.48222 1.39277,3.6487 2.07591,4.81439 2.70373,4.61358 8.70059,9.97844 13.30387,11.90181 0.9673,0.40417 1.75873,0.94834 1.75873,1.20929 0,0.26093 -1.45079,1.23679 -3.22397,2.16858 -6.26493,3.29213 -11.73682,9.4434 -13.76754,15.4769 -1.02037,3.03163 -1.8519,4.064 -2.25356,2.79786 z m 368.52084,-9.00598 c -0.11921,-0.37111 -0.56161,-1.76848 -0.98315,-3.10526 -1.93776,-6.14491 -8.78891,-13.40438 -15.16462,-16.06832 -0.96731,-0.40417 -1.75793,-0.90646 -1.75697,-1.11621 0,-0.20976 1.44635,-1.12842 3.21195,-2.04147 6.02158,-3.11396 11.98819,-9.90229 13.9246,-15.84235 0.43772,-1.34276 1.02253,-2.51692 1.29948,-2.60925 0.277,-0.0923 0.88489,1.04433 1.3509,2.5259 1.8529,5.89081 7.61512,12.53562 13.59605,15.67851 1.80143,0.94664 3.2646,1.97728 3.25146,2.29032 -0.0134,0.31304 -1.3231,1.18523 -2.91101,1.93819 -3.35659,1.59162 -8.64826,6.37986 -11.05077,9.99942 -0.90742,1.36707 -2.06707,3.72144 -2.57702,5.23191 -1.03153,3.05552 -1.84105,4.20783 -2.1909,3.11861 z M 519.32819,361.53753 c -1.36524,-2.81003 -3.62745,-5.30736 -6.14338,-6.78178 -1.14242,-0.66951 -2.07716,-1.37511 -2.07716,-1.56799 0,-0.19288 1.0592,-1.037 2.35372,-1.87583 2.62434,-1.70053 4.91418,-4.34725 5.99127,-6.92507 0.39259,-0.93959 0.88246,-1.70836 1.08866,-1.70836 0.20615,0 0.83166,0.94032 1.39004,2.08961 1.36523,2.81003 3.62744,5.30736 6.14337,6.78178 1.14242,0.66951 2.07715,1.37174 2.07715,1.5605 0,0.18876 -0.84175,0.8163 -1.87061,1.39453 -2.41604,1.35791 -6.00793,5.36096 -6.7047,7.47232 -0.29948,0.90744 -0.69945,1.64989 -0.88885,1.64989 -0.18934,0 -0.80114,-0.94032 -1.35951,-2.0896 z M 209.71934,319.07527 c -0.93384,-2.45614 -3.31422,-5.31991 -5.90529,-7.10444 -1.45802,-1.00416 -2.65095,-1.97001 -2.65095,-2.1463 0,-0.1763 0.54395,-0.56839 1.20879,-0.8713 2.13076,-0.97084 5.71726,-4.72653 6.87586,-7.20025 0.61827,-1.32003 1.28516,-2.40006 1.48193,-2.40006 0.19682,0 0.60575,0.7513 0.90879,1.66955 0.68306,2.0696 4.5739,6.39376 6.86163,7.62579 0.93897,0.50568 1.70721,1.04886 1.70721,1.20707 0,0.1582 -1.05767,0.97301 -2.35039,1.81067 -2.74798,1.78063 -4.51647,3.75973 -5.89489,6.59692 -1.14403,2.35479 -1.59429,2.51786 -2.24269,0.81235 z m 121.0301,-19.90271 c -0.9704,-2.68366 -3.30398,-5.47152 -6.05053,-7.22848 -1.4328,-0.91653 -2.60506,-1.82536 -2.60506,-2.01962 0,-0.19427 0.75438,-0.75947 1.67641,-1.25601 2.3184,-1.24853 5.82077,-5.10962 6.94947,-7.66118 0.51743,-1.16978 1.04553,-2.12688 1.17351,-2.12688 0.12797,0 0.64679,0.96604 1.15289,2.14674 1.09299,2.54988 4.54532,6.37773 6.89167,7.64132 0.92202,0.49654 1.67636,1.07031 1.67636,1.27504 0,0.20473 -1.07918,1.03627 -2.39818,1.84787 -2.60363,1.60202 -5.33024,4.81727 -6.25584,7.3769 -0.74044,2.04771 -1.47126,2.04914 -2.2107,0.004 z m 387.71145,-8.97394 c -1.17561,-2.66455 -4.53443,-6.19878 -6.90863,-7.26939 -1.04976,-0.4734 -1.90871,-1.03807 -1.90871,-1.25483 0,-0.21677 0.88123,-0.8437 1.95833,-1.39317 2.70346,-1.37922 5.89985,-4.79889 6.87695,-7.35739 0.44892,-1.17547 0.9913,-2.13723 1.20536,-2.13723 0.21401,0 0.80352,0.93677 1.30996,2.08172 1.18026,2.66818 3.95448,5.73376 6.58258,7.27391 1.13479,0.66505 2.06325,1.28448 2.06325,1.37653 0,0.092 -1.20483,0.96708 -2.67743,1.94453 -2.74703,1.82338 -5.02124,4.46734 -6.19374,7.2007 -0.36503,0.85104 -0.83385,1.54735 -1.04182,1.54735 -0.20791,0 -0.77767,-0.90574 -1.2661,-2.01273 z M 276.18692,237.3798 c -0.11074,-0.3491 -0.5401,-1.70992 -0.95411,-3.02407 -1.66028,-5.26984 -7.39825,-11.70641 -13.11281,-14.70935 -1.84148,-0.96766 -3.34735,-2.01551 -3.3464,-2.32855 0,-0.31305 1.44717,-1.30541 3.21371,-2.20525 5.95951,-3.03557 12.31366,-10.61308 13.89909,-16.57495 0.61817,-2.32476 1.3012,-2.6055 1.7374,-0.71416 0.16611,0.72011 1.05472,2.90311 1.97475,4.85112 2.20351,4.66576 7.45276,9.98977 12.39078,12.56719 1.90347,0.99352 3.33402,2.01162 3.179,2.26243 -0.15502,0.25081 -1.49816,1.07975 -2.98475,1.84208 -6.56944,3.3688 -12.17453,9.88165 -14.13319,16.422 -0.57875,1.93254 -1.50696,2.73528 -1.86347,1.61151 z m 359.65942,-23.96623 c -0.26134,-0.68745 -0.47521,-1.47879 -0.47521,-1.75854 0,-0.96227 -3.451,-7.28724 -4.88407,-8.95148 -2.17323,-2.52386 -5.94684,-5.5169 -9.02229,-7.15611 -1.51654,-0.80829 -2.75732,-1.66003 -2.75732,-1.89275 0,-0.23273 1.1248,-0.9866 2.49955,-1.67528 3.39849,-1.70245 7.05664,-4.52296 9.06347,-6.98812 2.11996,-2.60413 4.96359,-7.97292 5.36981,-10.13816 0.42668,-2.27436 1.4814,-2.10326 2.14128,0.34736 1.77354,6.58647 7.57755,13.24325 14.63919,16.7901 1.3589,0.68253 2.4707,1.43958 2.4707,1.68233 0,0.24277 -0.91055,0.90355 -2.02345,1.46842 -6.96394,3.5347 -13.15079,10.35736 -14.92433,16.45811 -0.87161,2.99822 -1.45522,3.50302 -2.09733,1.81412 z M 365.65381,157.62928 c -1.07252,-2.56683 -3.80537,-5.68948 -6.21536,-7.10182 -2.46823,-1.44648 -2.65224,-2.23704 -0.70821,-3.04229 1.93714,-0.8024 5.9447,-5.15135 6.71827,-7.29057 0.79358,-2.19459 1.51126,-2.24311 2.26698,-0.15325 0.79457,2.1974 4.01765,5.75937 6.559,7.2487 1.15246,0.67539 2.09538,1.30329 2.09538,1.39534 0,0.0921 -1.15903,0.93669 -2.57565,1.87698 -2.77249,1.84028 -4.30828,3.5978 -5.93523,6.79215 -0.5668,1.1129 -1.13046,2.02345 -1.25258,2.02345 -0.12208,0 -0.55077,-0.78691 -0.9526,-1.74869 z m 174.92486,-36.82082 c -1.05467,-2.45164 -5.67642,-7.2497 -7.55875,-7.84713 -1.49558,-0.47469 -1.17341,-1.03045 1.64137,-2.83105 2.74661,-1.75695 5.08015,-4.54483 6.05059,-7.22847 0.31994,-0.88478 0.817,-1.60868 1.10457,-1.60868 0.28756,0 0.78461,0.7239 1.10456,1.60868 0.97045,2.68364 3.30398,5.47152 6.05058,7.22847 1.43275,0.91653 2.60501,1.82537 2.60501,2.01963 0,0.19426 -0.75438,0.75946 -1.67641,1.25601 -2.31835,1.24853 -5.82077,5.10961 -6.94943,7.66118 -0.51747,1.16978 -1.03195,2.12687 -1.14336,2.12687 -0.11141,0 -0.66436,-1.07348 -1.22873,-2.38551 z m -83.53928,-9.30918 c -1.86136,-5.91774 -7.55713,-12.505143 -13.52329,-15.640263 -1.84147,-0.967668 -3.34531,-2.01552 -3.34186,-2.328562 0.003,-0.313042 1.34248,-1.207643 2.97565,-1.987991 5.95012,-2.843049 12.45578,-10.59011 14.13736,-16.835011 0.30245,-1.12323 0.76534,-1.97042 1.02863,-1.882656 0.2633,0.08775 0.9495,1.547794 1.5249,3.244505 2.10539,6.208242 7.33935,12.112094 13.70174,15.455449 1.81705,0.954835 3.18529,1.927804 3.04045,2.162134 -0.14483,0.234341 -1.59372,1.131051 -3.21971,1.992708 -5.82267,3.085554 -11.73332,9.876377 -13.73012,15.774667 -0.45263,1.33702 -1.03075,2.50022 -1.28471,2.58488 -0.25396,0.0847 -0.84304,-1.05828 -1.30904,-2.53986 z"
       id="path374" />
  </g>
</svg>
